<?xml version="1.0" encoding="UTF-8" standalone="no"?>
<svg
   xmlns:dc="http://purl.org/dc/elements/1.1/"
   xmlns:cc="http://creativecommons.org/ns#"
   xmlns:rdf="http://www.w3.org/1999/02/22-rdf-syntax-ns#"
   xmlns:svg="http://www.w3.org/2000/svg"
   xmlns="http://www.w3.org/2000/svg"
   id="svg19"
   version="1.1"
   height="32"
   width="32">
  <metadata
     id="metadata25">
    <rdf:RDF>
      <cc:Work
         rdf:about="">
        <dc:format>image/svg+xml</dc:format>
        <dc:type
           rdf:resource="http://purl.org/dc/dcmitype/StillImage" />
        <dc:title></dc:title>
      </cc:Work>
    </rdf:RDF>
  </metadata>
  <defs
     id="defs23" />
  <!-- Created with Method Draw - http://github.com/duopixel/Method-Draw/ -->
  <g
     transform="translate(0.00964096,-1.0096414)"
     style="stroke-width:1;stroke-miterlimit:4;stroke-dasharray:none"
     id="g7">
    <title
       id="title2">background</title>
    <rect
       style="fill:none;stroke-width:1;stroke-miterlimit:4;stroke-dasharray:none"
       id="canvas_background"
       height="35"
       width="35"
       y="-1"
       x="-1" />
    <g
       style="display:none;stroke-width:1;stroke-miterlimit:4;stroke-dasharray:none"
       display="none"
       id="canvasGrid">
      <rect
         style="fill:url(#gridpattern);stroke-width:1;stroke-miterlimit:4;stroke-dasharray:none"
         y="0"
         x="0"
         height="100%"
         width="100%"
         id="svg_1" />
    </g>
  </g>
  <g
     transform="translate(0.00964096,-1.0096414)"
     style="stroke-width:1;stroke-miterlimit:4;stroke-dasharray:none"
     id="g17">
    <title
       id="title9">Layer 1</title>
    <circle
       r="15.500301"
       style="fill:#aae600;stroke:#000000;stroke-width:0.99939781;stroke-miterlimit:4;stroke-dasharray:none;fill-opacity:1;stroke-opacity:1"
       id="svg_2"
       cy="17.009642"
       cx="15.990359" />
    <path
       id="path4521"
       d="m 19.598958,11.401042 v 13.78298 L 13.99036,20.589695 8.3817599,25.184022 v -13.78298 z"
       style="fill:none;fill-rule:evenodd;stroke:#000000;stroke-width:0.78280187px;stroke-linecap:butt;stroke-linejoin:miter;stroke-opacity:1" />
    <g
       style="stroke:#000000;stroke-opacity:1"
       transform="matrix(0.99991164,0,0,1.0000032,-2.9551407,-8.0650794)"
       id="g852">
      <path
         d="m 27.966599,21.731547 h 0.624714 c 0,0 -0.123871,-3.5457 -1.698622,-3.763131 -2.234182,-0.30822 -0.964395,1.466009 -3.47268,1.42316 -1.143986,-0.01973 -1.514314,-0.936541 -2.004013,-1.622984 -0.583781,-0.818809 -0.732297,-1.818987 -1.80749,-2.26106 -0.883815,-0.363373 -2.478497,0.509105 -3.428962,1.697864 -1.232283,1.541314 -1.945721,4.463574 -1.945721,4.463574"
         style="fill:none;stroke:#000000;stroke-width:0.6889478;stroke-linecap:butt;stroke-linejoin:miter;stroke-miterlimit:4;stroke-dasharray:none;stroke-opacity:1"
         id="path26" />
      <path
         d="m 27.537979,23.216435 h 0.624714 c 0,0 -0.123871,-3.5457 -1.698622,-3.76313 -2.234181,-0.308221 -0.964395,1.466008 -3.47268,1.423159 -1.143986,-0.01973 -1.514315,-0.93654 -2.004013,-1.622983 -0.583781,-0.81881 -0.732297,-1.818988 -1.80749,-2.261061 -0.883816,-0.363373 -2.478497,0.509105 -3.428962,1.697864 -1.232283,1.541314 -1.943578,4.463574 -1.943578,4.463574"
         style="fill:none;stroke:#000000;stroke-width:0.6889478;stroke-linecap:butt;stroke-linejoin:miter;stroke-miterlimit:4;stroke-dasharray:none;stroke-opacity:1"
         id="path30" />
      <path
         d="m 13.383678,24.63864 14.350416,0.0893 c 0,0 -0.123871,-3.559065 -1.698622,-3.776282 -2.234182,-0.308433 -0.964394,1.45922 -3.47268,1.416159 -1.143987,-0.01952 -1.514315,-0.939722 -2.004013,-1.626165 -0.583995,-0.81881 -0.732512,-1.820686 -1.807491,-2.262758 -0.883814,-0.363373 -2.478496,0.508256 -3.428961,1.697015 -1.232283,1.541314 -1.938649,4.462726 -1.938649,4.462726 z"
         style="fill:none;stroke:#000000;stroke-width:0.6889478;stroke-linecap:butt;stroke-linejoin:miter;stroke-miterlimit:4;stroke-dasharray:none;stroke-opacity:1"
         id="path34" />
    </g>
  </g>
</svg>
