<?xml version="1.0" encoding="UTF-8" standalone="no"?>
<svg
   xmlns:dc="http://purl.org/dc/elements/1.1/"
   xmlns:cc="http://creativecommons.org/ns#"
   xmlns:rdf="http://www.w3.org/1999/02/22-rdf-syntax-ns#"
   xmlns:svg="http://www.w3.org/2000/svg"
   xmlns="http://www.w3.org/2000/svg"
   viewBox="0 0 32.443787 32.257904"
   height="32.257904"
   width="32.443787"
   xml:space="preserve"
   version="1.1"
   id="svg2"><metadata
     id="metadata8"><rdf:RDF><cc:Work
         rdf:about=""><dc:format>image/svg+xml</dc:format><dc:type
           rdf:resource="http://purl.org/dc/dcmitype/StillImage" /><dc:title></dc:title></cc:Work></rdf:RDF></metadata><defs
     id="defs6" /><g
     transform="matrix(1.25,0,0,-1.25,0.84701775,31.244485)"
     id="g10"><g
       id="g32"><g
         id="g34"><path
           d="m 24.876267,12.092426 c 0,-6.9058795 -5.630612,-12.50430674 -12.576193,-12.50430674 -6.9459281,0 -12.41401882,5.65260094 -12.41401882,12.55848074 0,6.905879 5.46809072,12.450133 12.41401882,12.450133 6.945581,0 12.576193,-5.598427 12.576193,-12.504307"
           style="fill:#999999;fill-opacity:1;fill-rule:nonzero;stroke:#141426;stroke-width:0.8;stroke-miterlimit:4;stroke-dasharray:none;stroke-opacity:1"
           id="path50" /><path
           mask="none"
           clip-path="none"
           d="m 4.1583273,12.498286 c 0,0 2.6685414,-4.7847707 7.9558917,-4.7954903 4.807061,-0.00934 6.359218,1.9976599 8.250811,5.0361643 0,0 -3.219778,3.687907 -7.889812,3.702777 -2.6094186,0.0083 -4.8074092,-0.400086 -8.3168907,-3.943451 z"
           style="fill:#999999;fill-opacity:1;stroke:#141426;stroke-width:0.80000001;stroke-linecap:butt;stroke-linejoin:miter;stroke-miterlimit:4;stroke-dasharray:none;stroke-opacity:1"
           id="path58" /><path
           mask="none"
           clip-path="none"
           d="m 9.9736817,11.992387 c -0.00243,-1.25005 1.0148313,-2.2656513 2.2720683,-2.2680719 1.257237,-0.00242 2.278676,1.0086849 2.281111,2.2590809 0.0024,1.250051 -1.014832,2.265306 -2.272069,2.268072 -1.257236,0.0024 -2.2786758,-1.009031 -2.2811103,-2.259081 z"
           style="fill:#999999;fill-opacity:1;stroke:#141426;stroke-width:0.80000001;stroke-linecap:butt;stroke-linejoin:miter;stroke-miterlimit:4;stroke-dasharray:none;stroke-opacity:1"
           id="path66" /></g></g></g></svg>