<?xml version="1.0" encoding="UTF-8" standalone="no"?>
<svg
   xmlns:dc="http://purl.org/dc/elements/1.1/"
   xmlns:cc="http://creativecommons.org/ns#"
   xmlns:rdf="http://www.w3.org/1999/02/22-rdf-syntax-ns#"
   xmlns:svg="http://www.w3.org/2000/svg"
   xmlns="http://www.w3.org/2000/svg"
   viewBox="0 0 32 32"
   height="32"
   width="32"
   xml:space="preserve"
   version="1.1"
   id="svg2"><metadata
     id="metadata8"><rdf:RDF><cc:Work
         rdf:about=""><dc:format>image/svg+xml</dc:format><dc:type
           rdf:resource="http://purl.org/dc/dcmitype/StillImage" /><dc:title></dc:title></cc:Work></rdf:RDF></metadata><defs
     id="defs6"><clipPath
       id="clipPath36"
       clipPathUnits="userSpaceOnUse"><path
         id="path38"
         d="m 0,72.323 72.323,0 L 72.323,0 0,0 0,72.323 Z" /></clipPath></defs><g
     transform="matrix(1.25,0,0,-1.25,1.2522658e-4,32.0005)"
     id="g10"><g
       id="g32"><g
         id="g34"><g
           style="opacity:0.985;stroke-width:2.26007812;stroke-miterlimit:10;stroke-dasharray:none"
           transform="matrix(0.35396762,0,0,0.35397251,25.5999,12.8004)"
           id="g48"><path
             id="path50"
             style="fill:#141426;fill-opacity:1;fill-rule:nonzero;stroke:none;stroke-width:2.26007812;stroke-miterlimit:10;stroke-dasharray:none"
             d="m 0,0 c 0,-19.971 -16.19,-36.161 -36.161,-36.161 -19.972,0 -36.162,16.19 -36.162,36.161 0,19.971 16.19,36.161 36.162,36.161 C -16.19,36.161 0,19.971 0,0" /></g><g
           style="opacity:0.985;stroke-width:2.26007812;stroke-miterlimit:10;stroke-dasharray:none"
           transform="matrix(0.35396762,0,0,0.35397251,4.5135535,13.215858)"
           id="g56"><path
             id="path58"
             style="fill:none;stroke:#999999;stroke-width:2.26007812;stroke-linecap:butt;stroke-linejoin:miter;stroke-miterlimit:10;stroke-dasharray:none;stroke-opacity:1"
             d="m 0,0 c 0,0 7.673,-13.837 22.876,-13.868 13.822,-0.027 18.285,5.777 23.724,14.564 0,0 -9.258,10.665 -22.686,10.708 C 16.411,11.428 10.091,10.247 0,0 Z" /></g><g
           style="opacity:0.985;stroke-width:2.26007812;stroke-miterlimit:10;stroke-dasharray:none"
           transform="matrix(0.35396762,0,0,0.35397251,10.432317,12.697996)"
           id="g64"><path
             id="path66"
             style="fill:none;stroke:#999999;stroke-width:2.26007812;stroke-linecap:butt;stroke-linejoin:miter;stroke-miterlimit:10;stroke-dasharray:none;stroke-opacity:1"
             d="m 0,0 c -0.007,-3.615 2.918,-6.552 6.533,-6.559 3.615,-0.007 6.552,2.917 6.559,6.533 C 13.099,3.589 10.174,6.525 6.559,6.533 2.944,6.54 0.007,3.615 0,0 Z" /></g></g></g></g></svg>