<?xml version="1.0" encoding="UTF-8" standalone="no"?>
<svg
   xmlns:dc="http://purl.org/dc/elements/1.1/"
   xmlns:cc="http://creativecommons.org/ns#"
   xmlns:rdf="http://www.w3.org/1999/02/22-rdf-syntax-ns#"
   xmlns:svg="http://www.w3.org/2000/svg"
   xmlns="http://www.w3.org/2000/svg"
   viewBox="0 0 32 32"
   height="32"
   width="32"
   xml:space="preserve"
   version="1.1"
   id="svg2"><metadata
     id="metadata8"><rdf:RDF><cc:Work
         rdf:about=""><dc:format>image/svg+xml</dc:format><dc:type
           rdf:resource="http://purl.org/dc/dcmitype/StillImage" /><dc:title></dc:title></cc:Work></rdf:RDF></metadata><defs
     id="defs6"><clipPath
       id="clipPath36"
       clipPathUnits="userSpaceOnUse"><path
         id="path38"
         d="m 0,72.323 72.323,0 L 72.323,0 0,0 0,72.323 Z" /></clipPath><linearGradient
       id="linearGradient40"
       spreadMethod="pad"
       gradientTransform="matrix(2882.88,0,0,2882.88,-2784.64,881.9029)"
       gradientUnits="userSpaceOnUse"
       y2="0"
       x2="1"
       y1="0"
       x1="0"><stop
         id="stop42"
         offset="0"
         style="stop-opacity:1;stop-color:#6e7072" /><stop
         id="stop44"
         offset="1"
         style="stop-opacity:1;stop-color:#666766" /></linearGradient></defs><g
     transform="matrix(1.25,0,0,-1.25,0,32)"
     id="g10"><g
       style="stroke-width:2.26009373;stroke-miterlimit:4;stroke-dasharray:none"
       transform="scale(0.35396762,0.35396762)"
       id="g32"><g
         style="stroke-width:2.26009373;stroke-miterlimit:4;stroke-dasharray:none"
         clip-path="url(#clipPath36)"
         id="g34"><path
           id="path46"
           style="fill:none;stroke:url(#linearGradient40);stroke-width:2.26009373;stroke-linecap:butt;stroke-linejoin:miter;stroke-miterlimit:4;stroke-dasharray:none;stroke-opacity:1"
           d="m 97.742,90.777 -2881.883,0 0,-1800.713 2881.883,0 0,1800.713 z" /><g
           style="stroke-width:2.26009373;stroke-miterlimit:4;stroke-dasharray:none"
           transform="translate(72.3229,36.1614)"
           id="g48"><path
             id="path50"
             style="fill:#141426;fill-opacity:1;fill-rule:nonzero;stroke:none;stroke-width:2.26009373;stroke-miterlimit:4;stroke-dasharray:none"
             d="m 0,0 c 0,-19.971 -16.19,-36.161 -36.161,-36.161 -19.972,0 -36.162,16.19 -36.162,36.161 0,19.971 16.19,36.161 36.162,36.161 C -16.19,36.161 0,19.971 0,0" /></g><path
           id="path52"
           style="fill:#999999;fill-opacity:1;fill-rule:nonzero;stroke:none;stroke-width:2.26009373;stroke-miterlimit:4;stroke-dasharray:none"
           d="m 33.407,17.234 2.965,0 0,2.965 -2.965,0 0,-2.965 z" /><g
           style="stroke-width:2.26009373;stroke-miterlimit:4;stroke-dasharray:none"
           transform="translate(25.977,45.7855)"
           id="g54"><path
             id="path56"
             style="fill:#141426;fill-opacity:1;fill-rule:nonzero;stroke:#999999;stroke-width:2.26009373;stroke-linecap:butt;stroke-linejoin:miter;stroke-miterlimit:4;stroke-dasharray:none;stroke-opacity:1"
             d="m 0,0 c 0,0 0,10.254 10.81,9.737 7.643,-0.366 11.728,-13.416 3.192,-18.359 -2.89,-1.673 -5.019,-3.367 -5.019,-3.367 -0.081,-4.004 -0.074,-9.055 -0.074,-9.055" /></g></g></g></g></svg>