<?xml version="1.0" encoding="UTF-8" standalone="no"?>
<svg
   xmlns:dc="http://purl.org/dc/elements/1.1/"
   xmlns:cc="http://creativecommons.org/ns#"
   xmlns:rdf="http://www.w3.org/1999/02/22-rdf-syntax-ns#"
   xmlns:svg="http://www.w3.org/2000/svg"
   xmlns="http://www.w3.org/2000/svg"
   viewBox="0 0 32.530968 32.367722"
   height="32.367722"
   width="32.530968"
   xml:space="preserve"
   version="1.1"
   id="svg2"><metadata
     id="metadata8"><rdf:RDF><cc:Work
         rdf:about=""><dc:format>image/svg+xml</dc:format><dc:type
           rdf:resource="http://purl.org/dc/dcmitype/StillImage" /><dc:title></dc:title></cc:Work></rdf:RDF></metadata><defs
     id="defs6"><clipPath
       id="clipPath36"
       clipPathUnits="userSpaceOnUse"><path
         id="path38"
         d="m 0,101.86 101.86,0 L 101.86,0 0,0 0,101.86 Z" /></clipPath></defs><path
     id="path60"
     style="fill:none;fill-opacity:1;fill-rule:nonzero;stroke:#00d989;stroke-width:1;stroke-miterlimit:4;stroke-dasharray:none;stroke-opacity:1"
     d="m 32.02971,16.183862 c 0,8.662469 -7.057751,15.685117 -15.764225,15.685117 -8.7061593,0 -15.76422572,-7.022648 -15.76422572,-15.685117 0,-8.6624703 7.05806642,-15.68511775 15.76422572,-15.68511775 8.706474,0 15.764225,7.02264745 15.764225,15.68511775" /><path
     style="fill:none;fill-rule:evenodd;stroke:#00d989;stroke-width:1px;stroke-linecap:butt;stroke-linejoin:miter;stroke-opacity:1"
     d="M 6.5146897,10.560655 V 22.904278 H 27.15597"
     id="path12" /><path
     style="fill:none;fill-rule:evenodd;stroke:#00d989;stroke-width:1px;stroke-linecap:butt;stroke-linejoin:miter;stroke-opacity:1"
     d="m 6.446114,21.258461 c 0.2220826,-0.0027 0.4032764,-0.170076 0.6171812,-0.205727 0.067643,-0.01127 0.1378406,0.0097 0.205727,0 0.4989931,-0.07128 0.095041,-0.03168 0.4114541,-0.137151 0.021686,-0.0072 0.04813,0.01022 0.068576,0 0.028914,-0.01446 0.045717,-0.04572 0.068576,-0.06858 0.068576,-0.06858 0.1371513,-0.137151 0.205727,-0.205727 0.022859,-0.02286 0.041678,-0.05064 0.068576,-0.06858 0.042529,-0.02835 0.1010088,-0.03243 0.1371514,-0.06858 0.080817,-0.08082 0.1164793,-0.202905 0.205727,-0.274303 0.035699,-0.02856 0.094704,0.01698 0.1371514,0 0.076523,-0.03061 0.1292041,-0.106542 0.205727,-0.137151 0.042447,-0.01698 0.094704,0.01698 0.1371514,0 0.4042687,-0.161708 0.080125,-0.07627 0.2743027,-0.205727 0.042529,-0.02835 0.094622,-0.04022 0.1371514,-0.06858 0.053795,-0.03586 0.079323,-0.108237 0.1371513,-0.137151 0.020445,-0.01022 0.04813,0.01022 0.068576,0 0.036625,-0.01831 0.1696244,-0.169625 0.205727,-0.205728 0.1371514,-0.137151 0.2743021,-0.274302 0.4114541,-0.411454 0.137151,-0.137151 0.274303,-0.274302 0.411454,-0.411454 0.04572,-0.04572 0.08454,-0.09957 0.137151,-0.137151 0.108461,-0.07747 0.24257,-0.117957 0.342879,-0.205727 0.08601,-0.07526 0.134329,-0.185055 0.205727,-0.274303 0.07974,-0.09967 0.183906,-0.183907 0.274302,-0.274303 0.02286,-0.02286 0.04572,-0.04572 0.06858,-0.06857 0.02286,-0.02286 0.03966,-0.05412 0.06858,-0.06858 0.02929,-0.01464 0.315769,0 0.342878,0 0.187702,0 0.377232,-0.03425 0.548606,0.06858 0.104791,0.06287 0.29843,0.359598 0.342878,0.411454 0.06311,0.07363 0.137151,0.137151 0.205727,0.205727 0.02286,0.02286 0.04333,0.04838 0.06858,0.06858 0.08925,0.0714 0.193485,0.124909 0.274303,0.205727 0.127956,0.127956 0.03187,0.200893 0.06857,0.274302 0.01446,0.02891 0.04572,0.04572 0.06858,0.06858 0.02286,0.02286 0.05412,0.03966 0.06858,0.06858 0.02045,0.04089 -0.02045,0.09626 0,0.137151 0.01446,0.02891 0.05064,0.04168 0.06857,0.06858 0.02835,0.04253 0.01746,0.137151 0.06858,0.137151 0.06465,0 0.09143,-0.09143 0.137151,-0.137151 0.112762,-0.112762 0.220582,-0.240965 0.342879,-0.342879 0.123485,-0.102904 0.30806,-0.205019 0.411454,-0.342878 0.03067,-0.04089 0.04022,-0.09462 0.06858,-0.137151 0.01328,-0.01992 0.134745,-0.127525 0.137152,-0.137152 0.0043,-0.01711 -0.01558,-0.380296 0,-0.411454 0.01446,-0.02891 0.03966,-0.05412 0.06858,-0.06858 0.02045,-0.01022 0.06303,0.02218 0.06858,0 0.02218,-0.0887 -0.01503,-0.184112 0,-0.274302 0.0084,-0.05042 0.04572,-0.09144 0.06858,-0.137152 0.06858,-0.137151 0.137151,-0.274302 0.205727,-0.411454 0.04572,-0.09143 0.104824,-0.177322 0.137151,-0.274302 0.03686,-0.110575 0.02765,-0.233744 0.06858,-0.342879 0.279526,-0.745402 0.002,0.608112 0.274303,-0.617181 0.01488,-0.06694 -0.01345,-0.138483 0,-0.205727 -0.04133,-0.124118 0.111088,-0.127539 0.137151,-0.205727 0.01446,-0.04337 -0.01446,-0.09378 0,-0.137151 0.02044,-0.06134 0.108237,-0.07932 0.137151,-0.137152 0.03233,-0.06465 0.0432,-0.138044 0.06858,-0.205727 0.334987,-0.953189 -0.05066,0.195236 0.274303,-0.617181 0.05369,-0.13423 0.08346,-0.277224 0.137151,-0.411454 0.03797,-0.09492 0.09143,-0.182869 0.137152,-0.274303 0.04572,-0.09143 0.08456,-0.186644 0.137151,-0.274303 0.0499,-0.08316 0.151932,-0.125034 0.205727,-0.205727 0.01268,-0.01902 -0.01022,-0.04813 0,-0.06858 0.04237,-0.08474 0.06621,-0.06858 0.137151,-0.06858 0.02286,0 0.04689,-0.0072 0.06858,0 0.04849,0.01616 0.101009,0.03243 0.137151,0.06858 0.01616,0.01616 0,0.04572 0,0.06858 0,0.114293 0,0.228586 0,0.342879 0,0.251444 0,0.502888 0,0.754332 0,0.16001 0.01985,0.321256 0,0.48003 -0.004,0.03208 -0.05412,0.03966 -0.06857,0.06858 -0.01022,0.02045 0,0.04572 0,0.06858 0,0.06858 0,0.137152 0,0.205728 0,0.228585 0,0.457171 0,0.685756 0,0.02286 0,0.04572 0,0.06858 0,0.02286 -0.01022,0.04813 0,0.06858 0.104563,0.209125 0.05436,-0.125421 0.137151,0.205727 0.01109,0.04435 -0.01446,0.09378 0,0.137151 0.01022,0.03067 0.04572,0.04572 0.06858,0.06858 0.02286,0.02286 0.03791,0.05835 0.06857,0.06857 0.03687,0.01229 0.216243,0 0.274303,0 0.114293,0 0.247781,0.0634 0.342879,0 0.137151,-0.09143 0.167029,-0.286301 0.274302,-0.411454 0.03326,-0.03881 0.09017,-0.04844 0.137152,-0.06858 0.113144,-0.04849 0.240455,-0.06887 0.342878,-0.137152 0.10759,-0.07173 0.182869,-0.182868 0.274303,-0.274302 0.06857,-0.06858 0.137151,-0.137152 0.205727,-0.205727 0.04572,-0.04572 0.0725,-0.137152 0.137151,-0.137152 0.04572,0 0,0.09143 0,0.137152 0,0.314465 0.01446,-0.07229 -0.06858,0.342878 -0.01793,0.08966 0,0.182868 0,0.274303 0,0.137151 0,0.274302 0,0.411454 0,0.02541 -0.0086,0.531415 0,0.548605 0.01446,0.02891 0.03966,0.05412 0.06858,0.06858 0.02044,0.01022 0.04572,0 0.06858,0 0.04572,0 0.100578,0.02743 0.137151,0 0.06593,-0.04945 0.08439,-0.142412 0.137152,-0.205727 0.06208,-0.0745 0.137151,-0.137152 0.205727,-0.205727 0.114292,-0.114293 0.228585,-0.228586 0.342878,-0.342879 0.09143,-0.09143 0.182869,-0.182868 0.274303,-0.274302 0.04572,-0.04572 0.103887,-0.08171 0.137151,-0.137152 0.03719,-0.06198 0.03625,-0.141073 0.06858,-0.205727 0.156922,-0.313844 -0.02842,0.290995 0.137151,-0.205727 0.0072,-0.02168 -0.01022,-0.04813 0,-0.06857 0.02891,-0.05783 0.103887,-0.08171 0.137152,-0.137152 0.0526,-0.08766 0.08456,-0.186644 0.137151,-0.274303 0.06226,-0.103764 0.166325,-0.09396 0.274303,-0.137151 0.04746,-0.01898 0.09143,-0.04572 0.137151,-0.06858 0.04572,-0.02286 0.09462,-0.04022 0.137151,-0.06857 0.0269,-0.01793 0.04572,-0.04572 0.06858,-0.06858 0.02286,-0.02286 0.04918,-0.04271 0.06858,-0.06858 0.01032,-0.01376 0.143352,-0.243115 0.205727,-0.274302 0.02045,-0.01022 0.04572,0 0.06857,0 0.02286,0 0.04956,-0.01268 0.06858,0 0.153315,0.10221 0.137151,0.09057 0.137151,0.205727 0,0.02286 -0.0072,0.04689 0,0.06857 0.01616,0.04849 0.05618,0.08756 0.06858,0.137152 0.01109,0.04435 0,0.09143 0,0.137151 0,0.06858 0,0.137151 0,0.205727 0,0.16001 0,0.32002 0,0.48003 0,0.04572 0,0.09143 0,0.137151 0,0.04572 -0.02536,0.09911 0,0.137152 0.02835,0.04253 0.101009,0.03243 0.137152,0.06858 0.01616,0.01616 -0.0055,0.0464 0,0.06858 0.01753,0.07013 0.0544,0.134846 0.06858,0.205727 0.009,0.04483 -0.02045,0.09626 0,0.137151 0.02891,0.05783 0.101288,0.08336 0.137152,0.137152 0.01268,0.01902 -0.01022,0.04813 0,0.06857 0.02079,0.04158 0.252275,0.244934 0.274302,0.274303 0.228586,0.304781 -0.114293,-0.0076 0.205727,0.205727 0.0269,0.01793 0.04572,0.04572 0.06858,0.06858 0.06858,0.06858 0.137151,0.137151 0.205727,0.205727 0.02286,0.02286 0.03966,0.05412 0.06858,0.06858 0.06465,0.03233 0.147899,0.0252 0.205727,0.06858 0.04089,0.03067 0.04022,0.09462 0.06857,0.137152 0.02233,0.03349 0.240814,0.251976 0.274303,0.274302 0.04253,0.02835 0.09462,0.04022 0.137152,0.06858 0.194296,0.129531 -0.12892,0.03635 0.274302,0.137151 0.02815,0.007 0.128839,-0.0083 0.137152,0 0.03614,0.03614 0.02008,0.120988 0.06857,0.137152 0.130114,0.04337 0.274303,0 0.411454,0 0.114293,0 0.228586,0 0.342879,0 0.04572,0 0.0928,0.01109 0.137151,0 0.07013,-0.01753 0.137152,-0.04572 0.205727,-0.06858 0.11152,-0.03717 0.241976,-0.06988 0.342879,-0.137151 0.0269,-0.01793 0.03966,-0.05412 0.06857,-0.06858 0.02045,-0.01022 0.04689,0.0072 0.06858,0 0.04849,-0.01616 0.08866,-0.05241 0.137151,-0.06858 0.04337,-0.01446 0.09626,0.02045 0.137152,0 0.02891,-0.01446 0.03966,-0.05412 0.06857,-0.06857 0.02045,-0.01022 0.04572,0 0.06858,0 0.02286,0 0.04572,0 0.06858,0"
     id="path14" /></svg>