<?xml version="1.0" encoding="UTF-8" standalone="no"?>
<svg
   xmlns:dc="http://purl.org/dc/elements/1.1/"
   xmlns:cc="http://creativecommons.org/ns#"
   xmlns:rdf="http://www.w3.org/1999/02/22-rdf-syntax-ns#"
   xmlns:svg="http://www.w3.org/2000/svg"
   xmlns="http://www.w3.org/2000/svg"
   viewBox="0 0 32.530968 32.367722"
   height="32.367722"
   width="32.530968"
   xml:space="preserve"
   version="1.1"
   id="svg2"><metadata
     id="metadata8"><rdf:RDF><cc:Work
         rdf:about=""><dc:format>image/svg+xml</dc:format><dc:type
           rdf:resource="http://purl.org/dc/dcmitype/StillImage" /><dc:title></dc:title></cc:Work></rdf:RDF></metadata><defs
     id="defs6"><clipPath
       id="clipPath36"
       clipPathUnits="userSpaceOnUse"><path
         id="path38"
         d="m 0,101.86 101.86,0 L 101.86,0 0,0 0,101.86 Z" /></clipPath></defs><path
     id="path60"
     style="fill:none;fill-opacity:1;fill-rule:nonzero;stroke:#eca90f;stroke-width:1;stroke-miterlimit:4;stroke-dasharray:none;stroke-opacity:0.94117647"
     d="m 32.02971,16.183862 c 0,8.662469 -7.057751,15.685117 -15.764225,15.685117 -8.7061593,0 -15.76422572,-7.022648 -15.76422572,-15.685117 0,-8.6624703 7.05806642,-15.68511775 15.76422572,-15.68511775 8.706474,0 15.764225,7.02264745 15.764225,15.68511775" /><path
     id="path68"
     style="fill:none;fill-opacity:1;fill-rule:nonzero;stroke:#eca90f;stroke-width:1;stroke-miterlimit:4;stroke-dasharray:none;stroke-opacity:0.94117647"
     d="m 5.9478578,18.898333 21.1413632,0.132254 c 0,0 -0.18249,-5.270678 -2.502447,-5.592359 -3.29145,-0.456763 -1.42077,2.160984 -5.116034,2.097214 -1.685347,-0.0289 -2.230922,-1.39165 -2.952359,-2.408214 -0.860353,-1.212589 -1.079152,-2.696282 -2.662837,-3.350955 -1.302056,-0.538125 -3.651377,0.752685 -5.0516241,2.513137 -1.8154275,2.282557 -2.8560621,6.608923 -2.8560621,6.608923" /><path
     id="path72"
     style="fill:none;fill-opacity:1;stroke:#eca90f;stroke-width:1;stroke-linecap:butt;stroke-linejoin:miter;stroke-miterlimit:4;stroke-dasharray:none;stroke-opacity:0.94117647"
     d="m 5.9478578,18.898333 21.1413632,0.132254 c 0,0 -0.18249,-5.270678 -2.502447,-5.592359 -3.29145,-0.456763 -1.42077,2.160984 -5.116034,2.097214 -1.685347,-0.0289 -2.230922,-1.39165 -2.952359,-2.408214 -0.860353,-1.212589 -1.079152,-2.696282 -2.662837,-3.350955 -1.302056,-0.538125 -3.651377,0.752685 -5.0516241,2.513137 -1.8154275,2.282557 -2.8560621,6.608923 -2.8560621,6.608923 z" /></svg>