<?xml version="1.0" encoding="UTF-8" standalone="no"?>
<svg
   xmlns:dc="http://purl.org/dc/elements/1.1/"
   xmlns:cc="http://creativecommons.org/ns#"
   xmlns:rdf="http://www.w3.org/1999/02/22-rdf-syntax-ns#"
   xmlns:svg="http://www.w3.org/2000/svg"
   xmlns="http://www.w3.org/2000/svg"
   viewBox="0 0 32.443786 32.257904"
   height="32.257904"
   width="32.443787"
   xml:space="preserve"
   version="1.1"
   id="svg2"><metadata
     id="metadata8"><rdf:RDF><cc:Work
         rdf:about=""><dc:format>image/svg+xml</dc:format><dc:type
           rdf:resource="http://purl.org/dc/dcmitype/StillImage" /><dc:title></dc:title></cc:Work></rdf:RDF></metadata><defs
     id="defs6" /><g
     transform="matrix(1.25,0,0,-1.25,0.84701775,31.244485)"
     id="g10"><g
       style="fill:#999999;fill-opacity:1;stroke:#141426;stroke-opacity:1"
       id="g32"><g
         style="fill:#999999;fill-opacity:1;stroke:#141426;stroke-opacity:1"
         id="g34"><g
           style="fill:#999999;fill-opacity:1;stroke:#141426;stroke-width:2.30688548;stroke-miterlimit:4;stroke-dasharray:none;stroke-opacity:1"
           transform="matrix(0.34778332,0,0,0.34579538,24.876267,12.092426)"
           id="g48"><path
             id="path50"
             style="fill:#999999;fill-opacity:1;fill-rule:nonzero;stroke:#141426;stroke-width:2.30688548;stroke-miterlimit:4;stroke-dasharray:none;stroke-opacity:1"
             d="m 0,0 c 0,-19.971 -16.19,-36.161 -36.161,-36.161 -19.972,0 -36.162,16.19 -36.162,36.161 0,19.971 16.19,36.161 36.162,36.161 C -16.19,36.161 0,19.971 0,0" /></g><g
           style="fill:#141426;fill-opacity:1;stroke:#141426;stroke-width:2.30688548;stroke-miterlimit:4;stroke-dasharray:none;stroke-opacity:1"
           transform="matrix(0.34778332,0,0,0.34579538,12.2999,18.445966)"
           id="g52"><path
             id="path54"
             style="fill:#141426;fill-opacity:1;fill-rule:nonzero;stroke:#141426;stroke-width:2.30688548;stroke-miterlimit:4;stroke-dasharray:none;stroke-opacity:1"
             d="m 0,0 0,-8.677 5.696,0 0,-2.414 -6.034,-0.016 0,-16.32 c 0,-3.521 0.896,-6.133 2.75,-6.719 1.188,-0.375 2.806,-0.144 3.243,0.032 l -0.158,-2.335 c -0.674,-0.411 -1.47,-0.334 -2.807,-0.146 -1.544,0.217 -3.069,0.634 -3.903,2.043 -0.992,1.526 -1.506,3.62 -1.506,6.966 l 0,16.495 -4.977,0 0,2.602 4.977,0 0,7.139 L 0,0 Z" /></g></g></g></g></svg>