<?xml version="1.0" encoding="UTF-8" standalone="no"?>
<svg
   xmlns:dc="http://purl.org/dc/elements/1.1/"
   xmlns:cc="http://creativecommons.org/ns#"
   xmlns:rdf="http://www.w3.org/1999/02/22-rdf-syntax-ns#"
   xmlns:svg="http://www.w3.org/2000/svg"
   xmlns="http://www.w3.org/2000/svg"
   id="svg4339"
   version="1.1"
   xml:space="preserve"
   width="31.956776"
   height="31.595942"
   viewBox="0 0 31.956775 31.595941"><metadata
     id="metadata4345"><rdf:RDF><cc:Work
         rdf:about=""><dc:format>image/svg+xml</dc:format><dc:type
           rdf:resource="http://purl.org/dc/dcmitype/StillImage" /><dc:title></dc:title></cc:Work></rdf:RDF></metadata><defs
     id="defs4343"><marker
       orient="auto"
       refY="0.0"
       refX="0.0"
       id="TriangleOutM"
       style="overflow:visible"><path
         id="path4290"
         d="M 5.77,0.0 L -2.88,5.0 L -2.88,-5.0 L 5.77,0.0 z "
         style="fill-rule:evenodd;stroke:#000000;stroke-width:1pt;stroke-opacity:1;fill:#000000;fill-opacity:1"
         transform="scale(0.4)" /></marker><clipPath
       clipPathUnits="userSpaceOnUse"
       id="clipPath4353"><path
         d="m 0,81.996 81.996,0 L 81.996,0 0,0 0,81.996 Z"
         id="path4355" /></clipPath></defs><path
     d="m 0.50284683,15.797971 c 0,8.45029 6.92874597,15.300801 15.47554117,15.300801 8.546794,0 15.47554,-6.850511 15.47554,-15.300801 0,-8.45029 -6.928746,-15.30080132 -15.47554,-15.30080132 -8.5467952,0 -15.47554117,6.85051132 -15.47554117,15.30080132 z"
     style="fill:none;stroke:#00de12;stroke-width:1;stroke-linecap:butt;stroke-linejoin:miter;stroke-miterlimit:4;stroke-dasharray:none;stroke-opacity:1"
     id="path4359" /><g
     transform="matrix(-1,0,0,1,31.956775,0)"
     id="g4965"
     style="stroke:#00de12;stroke-opacity:1"><path
       id="path4961"
       d="M 8,15.595942 H 24"
       style="fill:none;fill-rule:evenodd;stroke:#00de12;stroke-width:1px;stroke-linecap:butt;stroke-linejoin:miter;stroke-opacity:1" /><path
       id="path4963"
       d="m 20,11.595942 4,4 -4,4"
       style="fill:none;fill-rule:evenodd;stroke:#00de12;stroke-width:1px;stroke-linecap:butt;stroke-linejoin:miter;stroke-opacity:1" /></g></svg>