<?xml version="1.0" encoding="UTF-8" standalone="no"?>
<svg
   xmlns:dc="http://purl.org/dc/elements/1.1/"
   xmlns:cc="http://creativecommons.org/ns#"
   xmlns:rdf="http://www.w3.org/1999/02/22-rdf-syntax-ns#"
   xmlns:svg="http://www.w3.org/2000/svg"
   xmlns="http://www.w3.org/2000/svg"
   id="svg2"
   version="1.1"
   xml:space="preserve"
   width="31.685452"
   height="31.362677"
   viewBox="0 0 31.685452 31.362677"><metadata
     id="metadata8"><rdf:RDF><cc:Work
         rdf:about=""><dc:format>image/svg+xml</dc:format><dc:type
           rdf:resource="http://purl.org/dc/dcmitype/StillImage" /><dc:title></dc:title></cc:Work></rdf:RDF></metadata><defs
     id="defs6"><clipPath
       clipPathUnits="userSpaceOnUse"
       id="clipPath16"><path
         d="m 0,101.86 101.86,0 L 101.86,0 0,0 0,101.86 Z"
         id="path18" /></clipPath></defs><g
     id="g10"
     transform="matrix(1.25,0,0,-1.25,-0.15730501,31.042471)"><path
       id="path22"
       style="fill:#141426;stroke:none;stroke-width:0.80000001;stroke-linecap:butt;stroke-linejoin:miter;stroke-miterlimit:4;stroke-dasharray:none;stroke-opacity:1;fill-opacity:1"
       d="m 25.225251,12.288857 c 0,-6.7922701 -5.562903,-12.29875061 -12.425326,-12.29875061 -6.8621738,0 -12.42532531,5.50648051 -12.42532531,12.29875061 0,6.79227 5.56315151,12.298751 12.42532531,12.298751 6.862423,0 12.425326,-5.506481 12.425326,-12.298751 z" /><path
       id="path26"
       style="fill:none;stroke:#999999;stroke-width:0.80000001;stroke-linecap:butt;stroke-linejoin:miter;stroke-miterlimit:4;stroke-dasharray:none;stroke-opacity:1"
       d="m 20.58313,14.257109 h 0.725412 c 0,0 -0.143838,4.117236 -1.972424,4.369714 -2.594312,0.357903 -1.119847,-1.702316 -4.032445,-1.65256 -1.328387,0.02291 -1.758409,1.087503 -2.327042,1.884594 -0.677881,0.950794 -0.850337,2.112192 -2.098842,2.625523 C 9.8515107,21.906326 7.9997812,20.893212 6.8961096,19.512836 5.4651939,17.723076 4.6367559,14.329773 4.6367559,14.329773" /><path
       id="path30"
       style="fill:none;stroke:#999999;stroke-width:0.80000001;stroke-linecap:butt;stroke-linejoin:miter;stroke-miterlimit:4;stroke-dasharray:none;stroke-opacity:1"
       d="m 20.08542,12.53287 h 0.725412 c 0,0 -0.143838,4.117236 -1.972424,4.369714 -2.594312,0.357903 -1.119847,-1.702316 -4.032445,-1.65256 -1.328387,0.02291 -1.758409,1.087503 -2.327042,1.884594 -0.677881,0.950794 -0.850337,2.112192 -2.098842,2.625523 C 9.3538006,20.182087 7.5020712,19.168973 6.3983997,17.788597 4.9674839,15.998837 4.1415345,12.605534 4.1415345,12.605534" /><path
       id="path34"
       style="fill:none;stroke:#999999;stroke-width:0.80000001;stroke-linecap:butt;stroke-linejoin:miter;stroke-miterlimit:4;stroke-dasharray:none;stroke-opacity:1"
       d="M 3.6495731,10.881419 20.313147,10.777718 c 0,0 -0.143838,4.132755 -1.972424,4.384986 -2.594312,0.35815 -1.119847,-1.694434 -4.032445,-1.644431 -1.328387,0.02266 -1.758409,1.091197 -2.327042,1.888288 -0.67813,0.950795 -0.850586,2.114164 -2.0988433,2.627494 C 8.8561155,18.456001 7.0043861,17.443873 5.9007146,16.063496 4.4697989,14.273736 3.6495731,10.881419 3.6495731,10.881419 Z" /><g
       id="g4965"
       style="stroke:#999999;stroke-opacity:1"
       transform="matrix(0.8,0,0,-0.8,-0.30561388,18.493125)"><path
         id="path4961"
         d="M 8,15.595942 H 24"
         style="fill:none;fill-rule:evenodd;stroke:#999999;stroke-width:1px;stroke-linecap:butt;stroke-linejoin:miter;stroke-opacity:1" /><path
         id="path4963"
         d="m 20,11.595942 4,4 -4,4"
         style="fill:none;fill-rule:evenodd;stroke:#999999;stroke-width:1px;stroke-linecap:butt;stroke-linejoin:miter;stroke-opacity:1" /></g></g></svg>