<?xml version="1.0" encoding="UTF-8" standalone="no"?>
<svg
   xmlns:dc="http://purl.org/dc/elements/1.1/"
   xmlns:cc="http://creativecommons.org/ns#"
   xmlns:rdf="http://www.w3.org/1999/02/22-rdf-syntax-ns#"
   xmlns:svg="http://www.w3.org/2000/svg"
   xmlns="http://www.w3.org/2000/svg"
   id="svg2"
   version="1.1"
   xml:space="preserve"
   width="24"
   height="24"
   viewBox="0 0 24 24"><metadata
     id="metadata8"><rdf:RDF><cc:Work
         rdf:about=""><dc:format>image/svg+xml</dc:format><dc:type
           rdf:resource="http://purl.org/dc/dcmitype/StillImage" /><dc:title></dc:title></cc:Work></rdf:RDF></metadata><defs
     id="defs6" /><path
     d="m 23.62388,12 c 0,6.419557 -5.204091,11.62388 -11.623881,11.62388 C 5.5804426,23.62388 0.37611992,18.419557 0.37611992,12 0.37611992,5.5804432 5.5804426,0.37612012 11.999999,0.37612012 18.419789,0.37612012 23.62388,5.5804432 23.62388,12 Z"
     style="fill:#cccccc;fill-opacity:1;stroke:#000000;stroke-width:0.75224048;stroke-linecap:butt;stroke-linejoin:miter;stroke-miterlimit:4;stroke-dasharray:none;stroke-opacity:1"
     id="path22" /><path
     d="m 20.027555,12.522998 0.692118,0 c 0,0 -0.137236,-4.4764228 -1.881899,-4.7509263 C 16.362531,7.3829454 17.769324,9.6228974 14.990402,9.5688004 13.722982,9.5438914 13.312697,8.3864234 12.770161,7.5197947 12.123391,6.4860546 11.95885,5.2233372 10.767647,4.6652237 9.7884706,4.2064674 8.0217271,5.3079647 6.9687092,6.8087634 5.6034664,8.75466 4.8130501,12.443994 4.8130501,12.443994"
     style="fill:#0000ff;fill-opacity:1;stroke:#000000;stroke-width:0.81479889;stroke-linecap:butt;stroke-linejoin:miter;stroke-miterlimit:4;stroke-dasharray:none;stroke-opacity:1"
     id="path26" /><path
     d="m 19.552686,14.92923 0.69212,0 c 0,0 -0.137236,-4.476422 -1.881898,-4.750926 -2.475245,-0.3891266 -1.06845,1.850826 -3.847373,1.79673 -1.267421,-0.02491 -1.677707,-1.182378 -2.22024,-2.0490066 C 11.648525,8.8922848 11.483984,7.6295678 10.29278,7.0714548 9.3136023,6.6126978 7.5468598,7.7141958 6.493842,9.2149934 5.1285992,11.160894 4.3405573,14.850227 4.3405573,14.850227"
     style="fill:#008000;fill-opacity:1;stroke:#000000;stroke-width:0.81479889;stroke-linecap:butt;stroke-linejoin:miter;stroke-miterlimit:4;stroke-dasharray:none;stroke-opacity:1"
     id="path30" /><path
     d="m 3.7382821,17.262929 15.8987889,0.112747 c 0,0 -0.137238,-4.493293 -1.881899,-4.76753 -2.475245,-0.389394 -1.068452,1.842257 -3.847374,1.78789 -1.267419,-0.02463 -1.677705,-1.186391 -2.22024,-2.05302 C 11.04055,11.309275 10.876009,10.044415 9.6850419,9.4863024 8.7058666,9.0275464 6.9391237,10.127971 5.8861059,11.62877 4.5208631,13.574669 3.7382821,17.262929 3.7382821,17.262929 Z"
     style="fill:#ff0000;fill-opacity:1;stroke:#000000;stroke-width:0.81479889;stroke-linecap:butt;stroke-linejoin:miter;stroke-miterlimit:4;stroke-dasharray:none;stroke-opacity:1"
     id="path34" /></svg>