<?xml version="1.0" encoding="UTF-8" standalone="no"?>
<svg
   xmlns:dc="http://purl.org/dc/elements/1.1/"
   xmlns:cc="http://creativecommons.org/ns#"
   xmlns:rdf="http://www.w3.org/1999/02/22-rdf-syntax-ns#"
   xmlns:svg="http://www.w3.org/2000/svg"
   xmlns="http://www.w3.org/2000/svg"
   id="svg2"
   version="1.1"
   xml:space="preserve"
   width="32.530968"
   height="32.367722"
   viewBox="0 0 32.530968 32.367722"><metadata
     id="metadata8"><rdf:RDF><cc:Work
         rdf:about=""><dc:format>image/svg+xml</dc:format><dc:type
           rdf:resource="http://purl.org/dc/dcmitype/StillImage" /><dc:title></dc:title></cc:Work></rdf:RDF></metadata><defs
     id="defs6" /><path
     d="m 32.02971,16.183862 c 0,8.662469 -7.057751,15.685117 -15.764225,15.685117 -8.7061593,0 -15.76422572,-7.022648 -15.76422572,-15.685117 0,-8.6624703 7.05806642,-15.68511775 15.76422572,-15.68511775 8.706474,0 15.764225,7.02264745 15.764225,15.68511775"
     style="fill:none;fill-opacity:1;fill-rule:nonzero;stroke:#69e400;stroke-width:1;stroke-miterlimit:4;stroke-dasharray:none;stroke-opacity:1"
     id="path60" /><path
     d="m 24.423353,18.89629 c 0,2.140251 -3.581287,3.875258 -7.998617,3.875258 -4.417645,0 -7.9989307,-1.735007 -7.9989307,-3.875258 0,-2.14025 3.5812857,-3.875257 7.9989307,-3.875257 4.41733,0 7.998617,1.735007 7.998617,3.875257"
     style="fill:none;fill-opacity:1;fill-rule:nonzero;stroke:#69e400;stroke-width:1;stroke-miterlimit:4;stroke-dasharray:none;stroke-opacity:1"
     id="path68" /><path
     d="m 24.423353,17.327684 c 0,2.14025 -3.581287,3.875258 -7.998617,3.875258 -4.417645,0 -7.9989307,-1.735008 -7.9989307,-3.875258 0,-2.14025 3.5812857,-3.875257 7.9989307,-3.875257 4.41733,0 7.998617,1.735007 7.998617,3.875257 z"
     style="fill:none;stroke:#69e400;stroke-width:1;stroke-linecap:butt;stroke-linejoin:miter;stroke-miterlimit:4;stroke-dasharray:1, 1;stroke-dashoffset:0;stroke-opacity:1"
     id="path80" /><path
     d="m 24.423353,15.75911 c 0,2.14025 -3.581287,3.875258 -7.998617,3.875258 -4.417645,0 -7.9989307,-1.735008 -7.9989307,-3.875258 0,-2.140249 3.5812857,-3.875257 7.9989307,-3.875257 4.41733,0 7.998617,1.735008 7.998617,3.875257 z"
     style="fill:none;stroke:#69e400;stroke-width:1;stroke-linecap:butt;stroke-linejoin:miter;stroke-miterlimit:4;stroke-dasharray:1, 1;stroke-dashoffset:0;stroke-opacity:1"
     id="path88" /><path
     d="m 24.423353,14.190535 c 0,2.14025 -3.581287,3.875258 -7.998617,3.875258 -4.417645,0 -7.9989307,-1.735008 -7.9989307,-3.875258 0,-2.14025 3.5812857,-3.875257 7.9989307,-3.875257 4.41733,0 7.998617,1.735008 7.998617,3.875257 z"
     style="fill:none;stroke:#69e400;stroke-width:1;stroke-linecap:butt;stroke-linejoin:miter;stroke-miterlimit:4;stroke-dasharray:1, 1;stroke-dashoffset:0;stroke-opacity:1"
     id="path96" /></svg>