<?xml version="1.0" encoding="UTF-8" standalone="no"?>
<svg
   xmlns:dc="http://purl.org/dc/elements/1.1/"
   xmlns:cc="http://creativecommons.org/ns#"
   xmlns:rdf="http://www.w3.org/1999/02/22-rdf-syntax-ns#"
   xmlns:svg="http://www.w3.org/2000/svg"
   xmlns="http://www.w3.org/2000/svg"
   viewBox="0 0 32.443787 32.257904"
   height="32.257904"
   width="32.443787"
   xml:space="preserve"
   version="1.1"
   id="svg2"><metadata
     id="metadata8"><rdf:RDF><cc:Work
         rdf:about=""><dc:format>image/svg+xml</dc:format><dc:type
           rdf:resource="http://purl.org/dc/dcmitype/StillImage" /><dc:title></dc:title></cc:Work></rdf:RDF></metadata><defs
     id="defs6" /><g
     transform="matrix(1.25,0,0,-1.25,0.84701775,31.244485)"
     id="g10"><g
       style="fill:#999999;fill-opacity:1;stroke:#141426;stroke-opacity:1"
       id="g32"><g
         style="fill:#999999;fill-opacity:1;stroke:#141426;stroke-opacity:1"
         id="g34"><g
           style="fill:#999999;fill-opacity:1;stroke:#141426;stroke-width:2.30688548;stroke-miterlimit:4;stroke-dasharray:none;stroke-opacity:1"
           transform="matrix(0.34778332,0,0,0.34579538,24.876267,12.092426)"
           id="g48"><path
             id="path50"
             style="fill:#999999;fill-opacity:1;fill-rule:nonzero;stroke:#141426;stroke-width:2.30688548;stroke-miterlimit:4;stroke-dasharray:none;stroke-opacity:1"
             d="m 0,0 c 0,-19.971 -16.19,-36.161 -36.161,-36.161 -19.972,0 -36.162,16.19 -36.162,36.161 0,19.971 16.19,36.161 36.162,36.161 C -16.19,36.161 0,19.971 0,0" /></g><path
           id="path52"
           style="fill:#141426;fill-opacity:1;fill-rule:nonzero;stroke:#141426;stroke-width:0.80000001;stroke-miterlimit:4;stroke-dasharray:none;stroke-opacity:1"
           d="m 11.341966,5.5474184 1.031177,0 0,1.0252832 -1.031177,0 0,-1.0252832 z" /><g
           style="fill:#999999;fill-opacity:1;stroke:#141426;stroke-width:2.30688548;stroke-miterlimit:4;stroke-dasharray:none;stroke-opacity:1"
           transform="matrix(0.34778332,0,0,0.34579538,8.7579355,15.420395)"
           id="g54"><path
             id="path56"
             style="fill:#999999;fill-opacity:1;fill-rule:nonzero;stroke:#141426;stroke-width:2.30688548;stroke-linecap:butt;stroke-linejoin:miter;stroke-miterlimit:4;stroke-dasharray:none;stroke-opacity:1"
             d="m 0,0 c 0,0 0,10.254 10.81,9.737 7.643,-0.366 11.728,-13.416 3.192,-18.359 -2.89,-1.673 -5.019,-3.367 -5.019,-3.367 -0.081,-4.004 -0.074,-9.055 -0.074,-9.055" /></g></g></g></g></svg>