<?xml version="1.0" encoding="UTF-8" standalone="no"?>
<svg
   xmlns:dc="http://purl.org/dc/elements/1.1/"
   xmlns:cc="http://creativecommons.org/ns#"
   xmlns:rdf="http://www.w3.org/1999/02/22-rdf-syntax-ns#"
   xmlns:svg="http://www.w3.org/2000/svg"
   xmlns="http://www.w3.org/2000/svg"
   viewBox="0 0 32.068261 31.741647"
   height="31.741646"
   width="32.06826"
   xml:space="preserve"
   version="1.1"
   id="svg2"><metadata
     id="metadata8"><rdf:RDF><cc:Work
         rdf:about=""><dc:format>image/svg+xml</dc:format><dc:type
           rdf:resource="http://purl.org/dc/dcmitype/StillImage" /><dc:title></dc:title></cc:Work></rdf:RDF></metadata><defs
     id="defs6" /><g
     transform="matrix(1.25,0,0,-1.25,0.03463153,31.231573)"
     id="g10"><g
       id="g50"><g
         id="g52"><path
           d="m 25.224851,12.2886 c 0,-6.7922426 -5.56287,-12.29870068 -12.425252,-12.29870068 -6.8621331,0 -12.42525152,5.50645808 -12.42525152,12.29870068 0,6.792243 5.56311842,12.298701 12.42525152,12.298701 6.862382,0 12.425252,-5.506458 12.425252,-12.298701 z"
           style="fill:none;stroke:#0000cc;stroke-width:0.80000001;stroke-linecap:butt;stroke-linejoin:miter;stroke-miterlimit:4;stroke-dasharray:none;stroke-opacity:1"
           id="path64" /><path
           d="m 6.545988,15.78485 c 0,-8.0516709 -7.466e-4,-8.1910874 -7.466e-4,-8.1910874 l 12.4177866,-0.037687 0.0092,8.1238424 -7.68534,0.06355 0.0027,1.344901 -4.7443906,0 7.466e-4,-1.303519 z"
           style="fill:none;stroke:#0000cc;stroke-width:0.80000001;stroke-linecap:butt;stroke-linejoin:miter;stroke-miterlimit:4;stroke-dasharray:none;stroke-opacity:1"
           id="path68" /><path
           d="M 18.845294,14.512342 6.6417706,14.536728"
           style="fill:none;stroke:#0000cc;stroke-width:0.80000001;stroke-linecap:butt;stroke-linejoin:miter;stroke-miterlimit:4;stroke-dasharray:none;stroke-opacity:1"
           id="path72" /></g></g></g></svg>