<?xml version="1.0" encoding="UTF-8" standalone="no"?>
<svg
   xmlns:dc="http://purl.org/dc/elements/1.1/"
   xmlns:cc="http://creativecommons.org/ns#"
   xmlns:rdf="http://www.w3.org/1999/02/22-rdf-syntax-ns#"
   xmlns:svg="http://www.w3.org/2000/svg"
   xmlns="http://www.w3.org/2000/svg"
   id="svg4339"
   version="1.1"
   xml:space="preserve"
   width="31.956776"
   height="31.595942"
   viewBox="0 0 31.956775 31.595941"><metadata
     id="metadata4345"><rdf:RDF><cc:Work
         rdf:about=""><dc:format>image/svg+xml</dc:format><dc:type
           rdf:resource="http://purl.org/dc/dcmitype/StillImage" /><dc:title></dc:title></cc:Work></rdf:RDF></metadata><defs
     id="defs4343"><clipPath
       clipPathUnits="userSpaceOnUse"
       id="clipPath4353"><path
         d="m 0,81.996 81.996,0 L 81.996,0 0,0 0,81.996 Z"
         id="path4355" /></clipPath></defs><path
     d="m 31.453928,15.797971 c 0,8.45029 -6.928746,15.300801 -15.475541,15.300801 -8.5467942,0 -15.47554017,-6.850511 -15.47554017,-15.300801 0,-8.45029 6.92874597,-15.30080132 15.47554017,-15.30080132 8.546795,0 15.475541,6.85051132 15.475541,15.30080132 z"
     style="fill:none;stroke:#00de12;stroke-width:1;stroke-linecap:butt;stroke-linejoin:miter;stroke-miterlimit:4;stroke-dasharray:none;stroke-opacity:1"
     id="path4359" /><g
     style="fill:none;stroke:#00de12;stroke-width:2.99374151;stroke-miterlimit:4;stroke-dasharray:none;stroke-opacity:1"
     transform="matrix(0.3359321,0,0,-0.332139,2.0324921,29.414972)"
     id="g5377"><path
       style="fill:none;fill-rule:evenodd;stroke:#00de12;stroke-width:2.99374151;stroke-linecap:butt;stroke-linejoin:miter;stroke-miterlimit:4;stroke-dasharray:none;stroke-opacity:1"
       id="path4373"
       transform="scale(1,-1)"
       d="M 65.601482,-27.848776 A 26.298244,26.298244 0 0 1 36.020048,-15.595745 26.298244,26.298244 0 0 1 16.52829,-40.997898 26.298244,26.298244 0 0 1 36.020047,-66.400051 26.298244,26.298244 0 0 1 65.601482,-54.147021" /><path
       style="fill:none;fill-rule:evenodd;stroke:#00de12;stroke-width:2.99374151;stroke-linecap:butt;stroke-linejoin:miter;stroke-miterlimit:4;stroke-dasharray:none;stroke-opacity:1"
       d="m 54.5,53.599999 12,0 0,12"
       id="path4375" /></g></svg>