<?xml version="1.0" encoding="UTF-8" standalone="no"?>
<svg
   xmlns:dc="http://purl.org/dc/elements/1.1/"
   xmlns:cc="http://creativecommons.org/ns#"
   xmlns:rdf="http://www.w3.org/1999/02/22-rdf-syntax-ns#"
   xmlns:svg="http://www.w3.org/2000/svg"
   xmlns="http://www.w3.org/2000/svg"
   viewBox="0 0 32.000001 32.000001"
   height="32"
   width="32"
   xml:space="preserve"
   version="1.1"
   id="svg2"><metadata
     id="metadata8"><rdf:RDF><cc:Work
         rdf:about=""><dc:format>image/svg+xml</dc:format><dc:type
           rdf:resource="http://purl.org/dc/dcmitype/StillImage" /><dc:title></dc:title></cc:Work></rdf:RDF></metadata><defs
     id="defs6"><mask
       id="mask9300"
       maskUnits="userSpaceOnUse"><g
         transform="translate(0,0.03703704)"
         id="g9302"><g
           id="g9304"><path
             id="path9306"
             style="fill:#ffffff;fill-opacity:1;fill-rule:nonzero;stroke:none;stroke-width:1;stroke-miterlimit:4;stroke-dasharray:none;stroke-opacity:1"
             d="M 29.572344,16.14191 C 29.434974,23.392074 23.545647,29.156491 16.417927,29.016749 9.290468,28.877012 3.623616,22.886033 3.7609878,15.635867 3.8983598,8.3857027 9.787945,2.6212926 16.915405,2.7610294 24.043125,2.9007713 29.709717,8.8917451 29.572344,16.141911" /><g
             style="fill:#000000;fill-opacity:1;stroke:#000000;stroke-opacity:1"
             id="g9308"
             transform="translate(-0.00477267,-0.02589379)"><path
               id="path9310"
               d="m 16.927076,23.16669 -1.821006,4.416892 4.39834,-2.190635"
               style="fill:#000000;fill-opacity:1;fill-rule:evenodd;stroke:#000000;stroke-width:1;stroke-linecap:butt;stroke-linejoin:miter;stroke-miterlimit:4;stroke-dasharray:none;stroke-opacity:1" /><rect
               style="opacity:0.98500001;fill:#000000;fill-opacity:1;stroke:#000000;stroke-width:1;stroke-miterlimit:4;stroke-dasharray:none;stroke-dashoffset:0;stroke-opacity:1"
               id="rect9312"
               width="9.691144"
               height="3.3461299"
               x="-6.324553"
               y="27.944405"
               transform="matrix(0.64991358,-0.76000812,0.76000812,0.64991358,0,0)" /><rect
               style="opacity:0.98500001;fill:#000000;fill-opacity:1;stroke:#000000;stroke-width:1;stroke-miterlimit:4;stroke-dasharray:none;stroke-dashoffset:0;stroke-opacity:1"
               id="rect9314"
               width="3.8511963"
               height="3.3424466"
               x="3.3034377"
               y="27.944405"
               transform="matrix(0.64991358,-0.76000812,0.76000812,0.64991358,0,0)" /></g></g></g></mask></defs><path
     id="path60"
     style="fill:none;fill-opacity:1;fill-rule:nonzero;stroke:#00aed4;stroke-width:1;stroke-miterlimit:4;stroke-dasharray:none;stroke-opacity:1"
     d="m 31.685717,16.000062 c 0,8.662871 -7.022658,15.685844 -15.685843,15.685844 -8.6628706,0 -15.68584331,-7.022973 -15.68584331,-15.685844 0,-8.6628708 7.02297271,-15.68584325 15.68584331,-15.68584325 8.663185,0 15.685843,7.02297255 15.685843,15.68584425" /><g
     mask="url(#mask9300)"
     id="g5036"><path
       d="m 24.01175,11.023506 0,12.783036 -16.2095426,0 0,-16.2095433 13.4415076,0 2.768035,3.4265073 z"
       style="fill:none;stroke:#00aed4;stroke-width:1;stroke-linecap:butt;stroke-linejoin:miter;stroke-miterlimit:4;stroke-dasharray:none;stroke-opacity:1"
       id="path68" /><path
       id="path70"
       style="fill:none;stroke:#00aed4;stroke-width:1;stroke-linecap:butt;stroke-linejoin:miter;stroke-miterlimit:4;stroke-dasharray:none;stroke-opacity:1"
       d="m 22.147732,14.303554 -12.1572351,0 0,9.502925 12.1572351,0 0,-9.502925 z" /><path
       id="path72"
       style="fill:none;stroke:#00aed4;stroke-width:1;stroke-linecap:butt;stroke-linejoin:miter;stroke-miterlimit:4;stroke-dasharray:none;stroke-opacity:1"
       d="m 20.202474,9.5522475 -10.2119771,0 0,2.9285685 10.2119771,0 0,-2.9285685 z" /><path
       d="m 20.678359,21.709421 -9.281131,0"
       style="fill:none;stroke:#00aed4;stroke-width:1;stroke-linecap:butt;stroke-linejoin:miter;stroke-miterlimit:4;stroke-dasharray:none;stroke-opacity:1"
       id="path76" /><path
       d="m 20.678359,19.160354 -9.281131,0"
       style="fill:none;stroke:#00aed4;stroke-width:1;stroke-linecap:butt;stroke-linejoin:miter;stroke-miterlimit:4;stroke-dasharray:none;stroke-opacity:1"
       id="path80" /><path
       d="m 20.678359,16.611286 -9.281131,0"
       style="fill:none;stroke:#00aed4;stroke-width:1;stroke-linecap:butt;stroke-linejoin:miter;stroke-miterlimit:4;stroke-dasharray:none;stroke-opacity:1"
       id="path84" /></g><g
     style="fill:none"
     id="g4885"><path
       id="path4163"
       d="m 16.927076,23.16669 -1.821006,4.416892 4.39834,-2.190635"
       style="fill:none;fill-opacity:1;fill-rule:evenodd;stroke:#00aed4;stroke-width:1;stroke-linecap:butt;stroke-linejoin:miter;stroke-miterlimit:4;stroke-dasharray:none;stroke-opacity:1" /><rect
       style="opacity:0.98500001;fill:none;fill-opacity:1;stroke:#00aed4;stroke-width:1;stroke-miterlimit:4;stroke-dasharray:none;stroke-dashoffset:0;stroke-opacity:1"
       id="rect4785"
       width="9.691144"
       height="3.3461299"
       x="-6.324553"
       y="27.944405"
       transform="matrix(0.64991358,-0.76000812,0.76000812,0.64991358,0,0)" /><rect
       style="opacity:0.98500001;fill:none;fill-opacity:1;stroke:#00aed4;stroke-width:1;stroke-miterlimit:4;stroke-dasharray:none;stroke-dashoffset:0;stroke-opacity:1"
       id="rect4787"
       width="3.8511963"
       height="3.3424466"
       x="3.3034377"
       y="27.944405"
       transform="matrix(0.64991358,-0.76000812,0.76000812,0.64991358,0,0)" /></g></svg>