<?xml version="1.0" encoding="UTF-8" standalone="no"?>
<svg
   xmlns:dc="http://purl.org/dc/elements/1.1/"
   xmlns:cc="http://creativecommons.org/ns#"
   xmlns:rdf="http://www.w3.org/1999/02/22-rdf-syntax-ns#"
   xmlns:svg="http://www.w3.org/2000/svg"
   xmlns="http://www.w3.org/2000/svg"
   viewBox="0 0 32.000001 32.000001"
   height="32"
   width="32"
   xml:space="preserve"
   version="1.1"
   id="svg2"><metadata
     id="metadata8"><rdf:RDF><cc:Work
         rdf:about=""><dc:format>image/svg+xml</dc:format><dc:type
           rdf:resource="http://purl.org/dc/dcmitype/StillImage" /><dc:title></dc:title></cc:Work></rdf:RDF></metadata><defs
     id="defs6" /><g
     transform="matrix(1.25,0,0,-1.25,0,32)"
     id="g10"><path
       d="m 25.348574,12.79995 c 0,-6.9302965 -5.618127,-12.54867473 -12.548675,-12.54867473 -6.9302963,0 -12.54867445,5.61837823 -12.54867445,12.54867473 0,6.930297 5.61837815,12.548675 12.54867445,12.548675 6.930548,0 12.548675,-5.618378 12.548675,-12.548675"
       style="fill:none;fill-opacity:1;fill-rule:nonzero;stroke:#0072d1;stroke-width:0.80000001;stroke-miterlimit:4;stroke-dasharray:none;stroke-opacity:1"
       id="path60" /><path
       d="m 25.348574,12.79995 c 0,-6.9302965 -5.618127,-12.54867473 -12.548675,-12.54867473 -6.9302963,0 -12.54867445,5.61837823 -12.54867445,12.54867473 0,6.930297 5.61837815,12.548675 12.54867445,12.548675 6.930548,0 12.548675,-5.618378 12.548675,-12.548675 z"
       style="fill:none;stroke:#0072d1;stroke-width:0.80000001;stroke-linecap:butt;stroke-linejoin:miter;stroke-miterlimit:4;stroke-dasharray:none;stroke-opacity:1"
       id="path64" /><path
       d="m 19.2094,16.781195 0,-10.2264285 -12.9676341,0 0,12.9676345 10.7532061,0 2.214428,-2.741206 z"
       style="fill:none;stroke:#0072d1;stroke-width:0.80000001;stroke-linecap:butt;stroke-linejoin:miter;stroke-miterlimit:4;stroke-dasharray:none;stroke-opacity:1"
       id="path68" /><path
       id="path70"
       style="fill:none;stroke:#0072d1;stroke-width:0.80000001;stroke-linecap:butt;stroke-linejoin:miter;stroke-miterlimit:4;stroke-dasharray:none;stroke-opacity:1"
       d="m 17.718186,14.157157 -9.7257885,0 0,-7.6023405 9.7257885,0 0,7.6023405 z" /><path
       id="path72"
       style="fill:none;stroke:#0072d1;stroke-width:0.80000001;stroke-linecap:butt;stroke-linejoin:miter;stroke-miterlimit:4;stroke-dasharray:none;stroke-opacity:1"
       d="m 16.161979,17.958202 -8.1695815,0 0,-2.342855 8.1695815,0 0,2.342855 z" /><path
       d="m 16.542687,8.2324634 -7.4249048,0"
       style="fill:none;stroke:#0072d1;stroke-width:0.80000001;stroke-linecap:butt;stroke-linejoin:miter;stroke-miterlimit:4;stroke-dasharray:none;stroke-opacity:1"
       id="path76" /><path
       d="m 16.542687,10.271717 -7.4249048,0"
       style="fill:none;stroke:#0072d1;stroke-width:0.80000001;stroke-linecap:butt;stroke-linejoin:miter;stroke-miterlimit:4;stroke-dasharray:none;stroke-opacity:1"
       id="path80" /><path
       d="m 16.542687,12.310971 -7.4249048,0"
       style="fill:none;stroke:#0072d1;stroke-width:0.80000001;stroke-linecap:butt;stroke-linejoin:miter;stroke-miterlimit:4;stroke-dasharray:none;stroke-opacity:1"
       id="path84" /></g></svg>