<?xml version="1.0" encoding="UTF-8"?>
<!DOCTYPE svg PUBLIC "-//W3C//DTD SVG 1.1//EN" "http://www.w3.org/Graphics/SVG/1.1/DTD/svg11.dtd">
<svg width="237mm" height="146mm" viewBox="0 0 23700 14600" version="1.1" xmlns="http://www.w3.org/2000/svg" stroke-width="28.222" stroke-linejoin="round" xml:space="preserve">
 <path fill="rgb(255,255,255)" stroke="none" d="M 11935,14554 L 63,14554 63,-1 23807,-1 23807,14554 11935,14554 Z"/>
 <path fill="none" stroke="rgb(179,179,179)" stroke-linejoin="round" d="M 12666,12248 L 2742,12248 2742,2135 22590,2135 22590,12248 12666,12248 Z"/>
 <path fill="none" stroke="rgb(179,179,179)" stroke-linejoin="round" d="M 22590,12247 L 2742,12247"/>
 <path fill="none" stroke="rgb(179,179,179)" stroke-linejoin="round" d="M 22590,10802 L 2742,10802"/>
 <path fill="none" stroke="rgb(179,179,179)" stroke-linejoin="round" d="M 22590,9357 L 2742,9357"/>
 <path fill="none" stroke="rgb(179,179,179)" stroke-linejoin="round" d="M 22590,7912 L 2742,7912"/>
 <path fill="none" stroke="rgb(179,179,179)" stroke-linejoin="round" d="M 22590,6468 L 2742,6468"/>
 <path fill="none" stroke="rgb(179,179,179)" stroke-linejoin="round" d="M 22590,5023 L 2742,5023"/>
 <path fill="none" stroke="rgb(179,179,179)" stroke-linejoin="round" d="M 22590,3578 L 2742,3578"/>
 <path fill="none" stroke="rgb(179,179,179)" stroke-linejoin="round" d="M 22590,2133 L 2742,2133"/>
 <path fill="none" stroke="rgb(179,179,179)" stroke-linejoin="round" d="M 2742,12397 L 2742,12247"/>
 <path fill="none" stroke="rgb(179,179,179)" stroke-linejoin="round" d="M 2742,12397 L 2742,12247"/>
 <path fill="none" stroke="rgb(179,179,179)" stroke-linejoin="round" d="M 4726,12397 L 4726,12247"/>
 <path fill="none" stroke="rgb(179,179,179)" stroke-linejoin="round" d="M 4726,12397 L 4726,12247"/>
 <path fill="none" stroke="rgb(179,179,179)" stroke-linejoin="round" d="M 6711,12397 L 6711,12247"/>
 <path fill="none" stroke="rgb(179,179,179)" stroke-linejoin="round" d="M 6711,12397 L 6711,12247"/>
 <path fill="none" stroke="rgb(179,179,179)" stroke-linejoin="round" d="M 8696,12397 L 8696,12247"/>
 <path fill="none" stroke="rgb(179,179,179)" stroke-linejoin="round" d="M 8696,12397 L 8696,12247"/>
 <path fill="none" stroke="rgb(179,179,179)" stroke-linejoin="round" d="M 10681,12397 L 10681,12247"/>
 <path fill="none" stroke="rgb(179,179,179)" stroke-linejoin="round" d="M 10681,12397 L 10681,12247"/>
 <path fill="none" stroke="rgb(179,179,179)" stroke-linejoin="round" d="M 12665,12397 L 12665,12247"/>
 <path fill="none" stroke="rgb(179,179,179)" stroke-linejoin="round" d="M 12665,12397 L 12665,12247"/>
 <path fill="none" stroke="rgb(179,179,179)" stroke-linejoin="round" d="M 14650,12397 L 14650,12247"/>
 <path fill="none" stroke="rgb(179,179,179)" stroke-linejoin="round" d="M 14650,12397 L 14650,12247"/>
 <path fill="none" stroke="rgb(179,179,179)" stroke-linejoin="round" d="M 16635,12397 L 16635,12247"/>
 <path fill="none" stroke="rgb(179,179,179)" stroke-linejoin="round" d="M 16635,12397 L 16635,12247"/>
 <path fill="none" stroke="rgb(179,179,179)" stroke-linejoin="round" d="M 18620,12397 L 18620,12247"/>
 <path fill="none" stroke="rgb(179,179,179)" stroke-linejoin="round" d="M 18620,12397 L 18620,12247"/>
 <path fill="none" stroke="rgb(179,179,179)" stroke-linejoin="round" d="M 20605,12397 L 20605,12247"/>
 <path fill="none" stroke="rgb(179,179,179)" stroke-linejoin="round" d="M 20605,12397 L 20605,12247"/>
 <path fill="none" stroke="rgb(179,179,179)" stroke-linejoin="round" d="M 22590,12397 L 22590,12247"/>
 <path fill="none" stroke="rgb(179,179,179)" stroke-linejoin="round" d="M 22590,12397 L 22590,12247"/>
 <path fill="none" stroke="rgb(179,179,179)" stroke-linejoin="round" d="M 2742,12247 L 22590,12247"/>
 <path fill="none" stroke="rgb(179,179,179)" stroke-linejoin="round" d="M 2592,12247 L 2742,12247"/>
 <path fill="none" stroke="rgb(179,179,179)" stroke-linejoin="round" d="M 2592,12247 L 2742,12247"/>
 <path fill="none" stroke="rgb(179,179,179)" stroke-linejoin="round" d="M 2592,10802 L 2742,10802"/>
 <path fill="none" stroke="rgb(179,179,179)" stroke-linejoin="round" d="M 2592,10802 L 2742,10802"/>
 <path fill="none" stroke="rgb(179,179,179)" stroke-linejoin="round" d="M 2592,9357 L 2742,9357"/>
 <path fill="none" stroke="rgb(179,179,179)" stroke-linejoin="round" d="M 2592,9357 L 2742,9357"/>
 <path fill="none" stroke="rgb(179,179,179)" stroke-linejoin="round" d="M 2592,7912 L 2742,7912"/>
 <path fill="none" stroke="rgb(179,179,179)" stroke-linejoin="round" d="M 2592,7912 L 2742,7912"/>
 <path fill="none" stroke="rgb(179,179,179)" stroke-linejoin="round" d="M 2592,6468 L 2742,6468"/>
 <path fill="none" stroke="rgb(179,179,179)" stroke-linejoin="round" d="M 2592,6468 L 2742,6468"/>
 <path fill="none" stroke="rgb(179,179,179)" stroke-linejoin="round" d="M 2592,5023 L 2742,5023"/>
 <path fill="none" stroke="rgb(179,179,179)" stroke-linejoin="round" d="M 2592,5023 L 2742,5023"/>
 <path fill="none" stroke="rgb(179,179,179)" stroke-linejoin="round" d="M 2592,3578 L 2742,3578"/>
 <path fill="none" stroke="rgb(179,179,179)" stroke-linejoin="round" d="M 2592,3578 L 2742,3578"/>
 <path fill="none" stroke="rgb(179,179,179)" stroke-linejoin="round" d="M 2592,2133 L 2742,2133"/>
 <path fill="none" stroke="rgb(179,179,179)" stroke-linejoin="round" d="M 2592,2133 L 2742,2133"/>
 <path fill="none" stroke="rgb(179,179,179)" stroke-linejoin="round" d="M 2742,12247 L 2742,2133"/>
 <path fill="rgb(87,157,28)" stroke="none" d="M 6942,11698 L 7192,11698 7067,11448 6942,11698 Z"/>
 <path fill="none" stroke="rgb(87,157,28)" stroke-linejoin="round" d="M 6942,11698 L 7192,11698 7067,11448 6942,11698 Z"/>
 <path fill="rgb(87,157,28)" stroke="none" d="M 8797,11279 L 9047,11279 8922,11029 8797,11279 Z"/>
 <path fill="none" stroke="rgb(87,157,28)" stroke-linejoin="round" d="M 8797,11279 L 9047,11279 8922,11029 8797,11279 Z"/>
 <path fill="rgb(87,157,28)" stroke="none" d="M 14185,10993 L 14435,10993 14310,10743 14185,10993 Z"/>
 <path fill="none" stroke="rgb(87,157,28)" stroke-linejoin="round" d="M 14185,10993 L 14435,10993 14310,10743 14185,10993 Z"/>
 <path fill="rgb(87,157,28)" stroke="none" d="M 15721,11218 L 15971,11218 15846,10968 15721,11218 Z"/>
 <path fill="none" stroke="rgb(87,157,28)" stroke-linejoin="round" d="M 15721,11218 L 15971,11218 15846,10968 15721,11218 Z"/>
 <path fill="rgb(87,157,28)" stroke="none" d="M 17922,11315 L 18172,11315 18047,11065 17922,11315 Z"/>
 <path fill="none" stroke="rgb(87,157,28)" stroke-linejoin="round" d="M 17922,11315 L 18172,11315 18047,11065 17922,11315 Z"/>
 <path fill="rgb(87,157,28)" stroke="none" d="M 20028,10228 L 20278,10228 20153,9978 20028,10228 Z"/>
 <path fill="none" stroke="rgb(87,157,28)" stroke-linejoin="round" d="M 20028,10228 L 20278,10228 20153,9978 20028,10228 Z"/>
 <path fill="rgb(87,157,28)" stroke="none" d="M 19790,10086 L 20040,10086 19915,9836 19790,10086 Z"/>
 <path fill="none" stroke="rgb(87,157,28)" stroke-linejoin="round" d="M 19790,10086 L 20040,10086 19915,9836 19790,10086 Z"/>
 <path fill="rgb(255,211,32)" stroke="none" d="M 3457,11649 L 3582,11899 3707,11649 3457,11649 Z"/>
 <path fill="none" stroke="rgb(255,211,32)" stroke-linejoin="round" d="M 3457,11649 L 3582,11899 3707,11649 3457,11649 Z"/>
 <path fill="rgb(255,211,32)" stroke="none" d="M 5700,10583 L 5825,10833 5950,10583 5700,10583 Z"/>
 <path fill="none" stroke="rgb(255,211,32)" stroke-linejoin="round" d="M 5700,10583 L 5825,10833 5950,10583 5700,10583 Z"/>
 <path fill="rgb(255,211,32)" stroke="none" d="M 5350,10808 L 5475,11058 5600,10808 5350,10808 Z"/>
 <path fill="none" stroke="rgb(255,211,32)" stroke-linejoin="round" d="M 5350,10808 L 5475,11058 5600,10808 5350,10808 Z"/>
 <path fill="rgb(255,211,32)" stroke="none" d="M 8796,8700 L 8921,8950 9046,8700 8796,8700 Z"/>
 <path fill="none" stroke="rgb(255,211,32)" stroke-linejoin="round" d="M 8796,8700 L 8921,8950 9046,8700 8796,8700 Z"/>
 <path fill="rgb(255,211,32)" stroke="none" d="M 6843,9730 L 6968,9980 7093,9730 6843,9730 Z"/>
 <path fill="none" stroke="rgb(255,211,32)" stroke-linejoin="round" d="M 6843,9730 L 6968,9980 7093,9730 6843,9730 Z"/>
 <path fill="rgb(255,211,32)" stroke="none" d="M 14038,5610 L 14163,5860 14288,5610 14038,5610 Z"/>
 <path fill="none" stroke="rgb(255,211,32)" stroke-linejoin="round" d="M 14038,5610 L 14163,5860 14288,5610 14038,5610 Z"/>
 <path fill="rgb(255,211,32)" stroke="none" d="M 15198,5852 L 15323,6102 15448,5852 15198,5852 Z"/>
 <path fill="none" stroke="rgb(255,211,32)" stroke-linejoin="round" d="M 15198,5852 L 15323,6102 15448,5852 15198,5852 Z"/>
 <path fill="rgb(255,211,32)" stroke="none" d="M 19014,3164 L 19139,3414 19264,3164 19014,3164 Z"/>
 <path fill="none" stroke="rgb(255,211,32)" stroke-linejoin="round" d="M 19014,3164 L 19139,3414 19264,3164 19014,3164 Z"/>
 <path fill="rgb(255,66,14)" stroke="none" d="M 3457,12041 L 3582,12166 3707,12041 3582,11916 3457,12041 Z"/>
 <path fill="none" stroke="rgb(255,66,14)" stroke-linejoin="round" d="M 3457,12041 L 3582,12166 3707,12041 3582,11916 3457,12041 Z"/>
 <path fill="rgb(255,66,14)" stroke="none" d="M 5700,12009 L 5825,12134 5950,12009 5825,11884 5700,12009 Z"/>
 <path fill="none" stroke="rgb(255,66,14)" stroke-linejoin="round" d="M 5700,12009 L 5825,12134 5950,12009 5825,11884 5700,12009 Z"/>
 <path fill="rgb(255,66,14)" stroke="none" d="M 5350,11883 L 5475,12008 5600,11883 5475,11758 5350,11883 Z"/>
 <path fill="none" stroke="rgb(255,66,14)" stroke-linejoin="round" d="M 5350,11883 L 5475,12008 5600,11883 5475,11758 5350,11883 Z"/>
 <path fill="rgb(255,66,14)" stroke="none" d="M 8796,11746 L 8921,11871 9046,11746 8921,11621 8796,11746 Z"/>
 <path fill="none" stroke="rgb(255,66,14)" stroke-linejoin="round" d="M 8796,11746 L 8921,11871 9046,11746 8921,11621 8796,11746 Z"/>
 <path fill="rgb(255,66,14)" stroke="none" d="M 6843,11807 L 6968,11932 7093,11807 6968,11682 6843,11807 Z"/>
 <path fill="none" stroke="rgb(255,66,14)" stroke-linejoin="round" d="M 6843,11807 L 6968,11932 7093,11807 6968,11682 6843,11807 Z"/>
 <path fill="rgb(255,66,14)" stroke="none" d="M 14038,11854 L 14163,11979 14288,11854 14163,11729 14038,11854 Z"/>
 <path fill="none" stroke="rgb(255,66,14)" stroke-linejoin="round" d="M 14038,11854 L 14163,11979 14288,11854 14163,11729 14038,11854 Z"/>
 <path fill="rgb(255,66,14)" stroke="none" d="M 15198,11834 L 15323,11959 15448,11834 15323,11709 15198,11834 Z"/>
 <path fill="none" stroke="rgb(255,66,14)" stroke-linejoin="round" d="M 15198,11834 L 15323,11959 15448,11834 15323,11709 15198,11834 Z"/>
 <path fill="rgb(255,66,14)" stroke="none" d="M 19014,11692 L 19139,11817 19264,11692 19139,11567 19014,11692 Z"/>
 <path fill="none" stroke="rgb(255,66,14)" stroke-linejoin="round" d="M 19014,11692 L 19139,11817 19264,11692 19139,11567 19014,11692 Z"/>
 <text class="TextShape"><tspan class="TextParagraph" font-family="Liberation Sans" font-size="353px" font-weight="400"><tspan class="TextPosition" x="2001" y="12815"><tspan fill="rgb(0,0,0)" stroke="none">0.00E+00</tspan></tspan></tspan></text>
 <text class="TextShape"><tspan class="TextParagraph" font-family="Liberation Sans" font-size="353px" font-weight="400"><tspan class="TextPosition" x="3985" y="12815"><tspan fill="rgb(0,0,0)" stroke="none">2.00E+07</tspan></tspan></tspan></text>
 <text class="TextShape"><tspan class="TextParagraph" font-family="Liberation Sans" font-size="353px" font-weight="400"><tspan class="TextPosition" x="5970" y="12815"><tspan fill="rgb(0,0,0)" stroke="none">4.00E+07</tspan></tspan></tspan></text>
 <text class="TextShape"><tspan class="TextParagraph" font-family="Liberation Sans" font-size="353px" font-weight="400"><tspan class="TextPosition" x="7955" y="12815"><tspan fill="rgb(0,0,0)" stroke="none">6.00E+07</tspan></tspan></tspan></text>
 <text class="TextShape"><tspan class="TextParagraph" font-family="Liberation Sans" font-size="353px" font-weight="400"><tspan class="TextPosition" x="9940" y="12815"><tspan fill="rgb(0,0,0)" stroke="none">8.00E+07</tspan></tspan></tspan></text>
 <text class="TextShape"><tspan class="TextParagraph" font-family="Liberation Sans" font-size="353px" font-weight="400"><tspan class="TextPosition" x="11925" y="12815"><tspan fill="rgb(0,0,0)" stroke="none">1.00E+08</tspan></tspan></tspan></text>
 <text class="TextShape"><tspan class="TextParagraph" font-family="Liberation Sans" font-size="353px" font-weight="400"><tspan class="TextPosition" x="13910" y="12815"><tspan fill="rgb(0,0,0)" stroke="none">1.20E+08</tspan></tspan></tspan></text>
 <text class="TextShape"><tspan class="TextParagraph" font-family="Liberation Sans" font-size="353px" font-weight="400"><tspan class="TextPosition" x="15895" y="12815"><tspan fill="rgb(0,0,0)" stroke="none">1.40E+08</tspan></tspan></tspan></text>
 <text class="TextShape"><tspan class="TextParagraph" font-family="Liberation Sans" font-size="353px" font-weight="400"><tspan class="TextPosition" x="17880" y="12815"><tspan fill="rgb(0,0,0)" stroke="none">1.60E+08</tspan></tspan></tspan></text>
 <text class="TextShape"><tspan class="TextParagraph" font-family="Liberation Sans" font-size="353px" font-weight="400"><tspan class="TextPosition" x="19865" y="12815"><tspan fill="rgb(0,0,0)" stroke="none">1.80E+08</tspan></tspan></tspan></text>
 <text class="TextShape"><tspan class="TextParagraph" font-family="Liberation Sans" font-size="353px" font-weight="400"><tspan class="TextPosition" x="21850" y="12815"><tspan fill="rgb(0,0,0)" stroke="none">2.00E+08</tspan></tspan></tspan></text>
 <text class="TextShape"><tspan class="TextParagraph" font-family="Liberation Sans" font-size="353px" font-weight="400"><tspan class="TextPosition" x="2307" y="12368"><tspan fill="rgb(0,0,0)" stroke="none">0</tspan></tspan></tspan></text>
 <text class="TextShape"><tspan class="TextParagraph" font-family="Liberation Sans" font-size="353px" font-weight="400"><tspan class="TextPosition" x="2122" y="10923"><tspan fill="rgb(0,0,0)" stroke="none">50</tspan></tspan></tspan></text>
 <text class="TextShape"><tspan class="TextParagraph" font-family="Liberation Sans" font-size="353px" font-weight="400"><tspan class="TextPosition" x="1936" y="9478"><tspan fill="rgb(0,0,0)" stroke="none">100</tspan></tspan></tspan></text>
 <text class="TextShape"><tspan class="TextParagraph" font-family="Liberation Sans" font-size="353px" font-weight="400"><tspan class="TextPosition" x="1936" y="8033"><tspan fill="rgb(0,0,0)" stroke="none">150</tspan></tspan></tspan></text>
 <text class="TextShape"><tspan class="TextParagraph" font-family="Liberation Sans" font-size="353px" font-weight="400"><tspan class="TextPosition" x="1936" y="6588"><tspan fill="rgb(0,0,0)" stroke="none">200</tspan></tspan></tspan></text>
 <text class="TextShape"><tspan class="TextParagraph" font-family="Liberation Sans" font-size="353px" font-weight="400"><tspan class="TextPosition" x="1936" y="5143"><tspan fill="rgb(0,0,0)" stroke="none">250</tspan></tspan></tspan></text>
 <text class="TextShape"><tspan class="TextParagraph" font-family="Liberation Sans" font-size="353px" font-weight="400"><tspan class="TextPosition" x="1936" y="3698"><tspan fill="rgb(0,0,0)" stroke="none">300</tspan></tspan></tspan></text>
 <text class="TextShape"><tspan class="TextParagraph" font-family="Liberation Sans" font-size="353px" font-weight="400"><tspan class="TextPosition" x="1936" y="2253"><tspan fill="rgb(0,0,0)" stroke="none">350</tspan></tspan></tspan></text>
 <text class="TextShape"><tspan class="TextParagraph" font-family="Liberation Sans" font-size="706px" font-weight="400"><tspan class="TextPosition" x="9074" y="1132"><tspan fill="rgb(0,0,0)" stroke="none">Conversion Time</tspan></tspan></tspan></text>
 <path fill="none" stroke="rgb(44,0,30)" stroke-linejoin="round" d="M 4952,5857 L 3920,5857 3920,2835 5985,2835 5985,5857 4952,5857 Z"/>
 <path fill="rgb(255,66,14)" stroke="none" d="M 4073,3477 L 4200,3604 4327,3477 4200,3350 4073,3477 Z"/>
 <path fill="none" stroke="rgb(255,66,14)" stroke-linejoin="round" d="M 4073,3477 L 4200,3604 4327,3477 4200,3350 4073,3477 Z"/>
 <path fill="rgb(255,211,32)" stroke="none" d="M 4073,4218 L 4200,4472 4327,4218 4073,4218 Z"/>
 <path fill="none" stroke="rgb(255,211,32)" stroke-linejoin="round" d="M 4073,4218 L 4200,4472 4327,4218 4073,4218 Z"/>
 <path fill="rgb(87,157,28)" stroke="none" d="M 4073,5340 L 4327,5340 4200,5086 4073,5340 Z"/>
 <path fill="none" stroke="rgb(87,157,28)" stroke-linejoin="round" d="M 4073,5340 L 4327,5340 4200,5086 4073,5340 Z"/>
 <text class="TextShape"><tspan class="TextParagraph" font-family="Liberation Sans" font-size="423px" font-weight="400"><tspan class="TextPosition" x="4427" y="3622"><tspan fill="rgb(0,0,0)" stroke="none">mz5</tspan></tspan></tspan></text>
 <text class="TextShape"><tspan class="TextParagraph" font-family="Liberation Sans" font-size="423px" font-weight="400"><tspan class="TextPosition" x="4427" y="4490"><tspan fill="rgb(0,0,0)" stroke="none">MzTree</tspan></tspan></tspan></text>
 <text class="TextShape"><tspan class="TextParagraph" font-family="Liberation Sans" font-size="423px" font-weight="400"><tspan class="TextPosition" x="4427" y="5358"><tspan fill="rgb(0,0,0)" stroke="none">mzDB</tspan></tspan></tspan></text>
 <text class="TextShape"><tspan class="TextParagraph" font-family="Liberation Sans" font-size="564px" font-weight="400"><tspan class="TextPosition" x="10438" y="13860"><tspan fill="rgb(0,0,0)" stroke="none">Number of Points</tspan></tspan></tspan></text>
 <text class="TextShape" transform="translate(1186,8446) rotate(-90) translate(-1186,-8446)"><tspan class="TextParagraph" font-family="Liberation Sans" font-size="564px" font-weight="400"><tspan class="TextPosition" x="1186" y="8446"><tspan fill="rgb(0,0,0)" stroke="none">Time (s)</tspan></tspan></tspan></text>
</svg>