<?xml version="1.0" encoding="UTF-8"?>
<!DOCTYPE svg PUBLIC "-//W3C//DTD SVG 1.1//EN" "http://www.w3.org/Graphics/SVG/1.1/DTD/svg11.dtd">
<svg width="237mm" height="144mm" viewBox="0 0 23700 14400" version="1.1" xmlns="http://www.w3.org/2000/svg" stroke-width="28.222" stroke-linejoin="round" xml:space="preserve">
 <path fill="rgb(255,255,255)" stroke="none" d="M 11872,14396 L 0,14396 0,0 23744,0 23744,14396 11872,14396 Z"/>
 <path fill="none" stroke="rgb(179,179,179)" stroke-linejoin="round" d="M 12417,12480 L 2531,12480 2531,1689 22303,1689 22303,12480 12417,12480 Z"/>
 <path fill="none" stroke="rgb(179,179,179)" stroke-linejoin="round" d="M 22303,12479 L 2531,12479"/>
 <path fill="none" stroke="rgb(179,179,179)" stroke-linejoin="round" d="M 22303,10680 L 2531,10680"/>
 <path fill="none" stroke="rgb(179,179,179)" stroke-linejoin="round" d="M 22303,8881 L 2531,8881"/>
 <path fill="none" stroke="rgb(179,179,179)" stroke-linejoin="round" d="M 22303,7084 L 2531,7084"/>
 <path fill="none" stroke="rgb(179,179,179)" stroke-linejoin="round" d="M 22303,5285 L 2531,5285"/>
 <path fill="none" stroke="rgb(179,179,179)" stroke-linejoin="round" d="M 22303,3486 L 2531,3486"/>
 <path fill="none" stroke="rgb(179,179,179)" stroke-linejoin="round" d="M 22303,1688 L 2531,1688"/>
 <path fill="none" stroke="rgb(179,179,179)" stroke-linejoin="round" d="M 2531,12629 L 2531,12479"/>
 <path fill="none" stroke="rgb(179,179,179)" stroke-linejoin="round" d="M 2531,12629 L 2531,12479"/>
 <path fill="none" stroke="rgb(179,179,179)" stroke-linejoin="round" d="M 4508,12629 L 4508,12479"/>
 <path fill="none" stroke="rgb(179,179,179)" stroke-linejoin="round" d="M 4508,12629 L 4508,12479"/>
 <path fill="none" stroke="rgb(179,179,179)" stroke-linejoin="round" d="M 6485,12629 L 6485,12479"/>
 <path fill="none" stroke="rgb(179,179,179)" stroke-linejoin="round" d="M 6485,12629 L 6485,12479"/>
 <path fill="none" stroke="rgb(179,179,179)" stroke-linejoin="round" d="M 8462,12629 L 8462,12479"/>
 <path fill="none" stroke="rgb(179,179,179)" stroke-linejoin="round" d="M 8462,12629 L 8462,12479"/>
 <path fill="none" stroke="rgb(179,179,179)" stroke-linejoin="round" d="M 10440,12629 L 10440,12479"/>
 <path fill="none" stroke="rgb(179,179,179)" stroke-linejoin="round" d="M 10440,12629 L 10440,12479"/>
 <path fill="none" stroke="rgb(179,179,179)" stroke-linejoin="round" d="M 12416,12629 L 12416,12479"/>
 <path fill="none" stroke="rgb(179,179,179)" stroke-linejoin="round" d="M 12416,12629 L 12416,12479"/>
 <path fill="none" stroke="rgb(179,179,179)" stroke-linejoin="round" d="M 14393,12629 L 14393,12479"/>
 <path fill="none" stroke="rgb(179,179,179)" stroke-linejoin="round" d="M 14393,12629 L 14393,12479"/>
 <path fill="none" stroke="rgb(179,179,179)" stroke-linejoin="round" d="M 16371,12629 L 16371,12479"/>
 <path fill="none" stroke="rgb(179,179,179)" stroke-linejoin="round" d="M 16371,12629 L 16371,12479"/>
 <path fill="none" stroke="rgb(179,179,179)" stroke-linejoin="round" d="M 18348,12629 L 18348,12479"/>
 <path fill="none" stroke="rgb(179,179,179)" stroke-linejoin="round" d="M 18348,12629 L 18348,12479"/>
 <path fill="none" stroke="rgb(179,179,179)" stroke-linejoin="round" d="M 20325,12629 L 20325,12479"/>
 <path fill="none" stroke="rgb(179,179,179)" stroke-linejoin="round" d="M 20325,12629 L 20325,12479"/>
 <path fill="none" stroke="rgb(179,179,179)" stroke-linejoin="round" d="M 22303,12629 L 22303,12479"/>
 <path fill="none" stroke="rgb(179,179,179)" stroke-linejoin="round" d="M 22303,12629 L 22303,12479"/>
 <path fill="none" stroke="rgb(179,179,179)" stroke-linejoin="round" d="M 2531,12479 L 22303,12479"/>
 <path fill="none" stroke="rgb(179,179,179)" stroke-linejoin="round" d="M 2381,12479 L 2531,12479"/>
 <path fill="none" stroke="rgb(179,179,179)" stroke-linejoin="round" d="M 2381,12479 L 2531,12479"/>
 <path fill="none" stroke="rgb(179,179,179)" stroke-linejoin="round" d="M 2381,10680 L 2531,10680"/>
 <path fill="none" stroke="rgb(179,179,179)" stroke-linejoin="round" d="M 2381,10680 L 2531,10680"/>
 <path fill="none" stroke="rgb(179,179,179)" stroke-linejoin="round" d="M 2381,8881 L 2531,8881"/>
 <path fill="none" stroke="rgb(179,179,179)" stroke-linejoin="round" d="M 2381,8881 L 2531,8881"/>
 <path fill="none" stroke="rgb(179,179,179)" stroke-linejoin="round" d="M 2381,7084 L 2531,7084"/>
 <path fill="none" stroke="rgb(179,179,179)" stroke-linejoin="round" d="M 2381,7084 L 2531,7084"/>
 <path fill="none" stroke="rgb(179,179,179)" stroke-linejoin="round" d="M 2381,5285 L 2531,5285"/>
 <path fill="none" stroke="rgb(179,179,179)" stroke-linejoin="round" d="M 2381,5285 L 2531,5285"/>
 <path fill="none" stroke="rgb(179,179,179)" stroke-linejoin="round" d="M 2381,3486 L 2531,3486"/>
 <path fill="none" stroke="rgb(179,179,179)" stroke-linejoin="round" d="M 2381,3486 L 2531,3486"/>
 <path fill="none" stroke="rgb(179,179,179)" stroke-linejoin="round" d="M 2381,1688 L 2531,1688"/>
 <path fill="none" stroke="rgb(179,179,179)" stroke-linejoin="round" d="M 2381,1688 L 2531,1688"/>
 <path fill="none" stroke="rgb(179,179,179)" stroke-linejoin="round" d="M 2531,12479 L 2531,1688"/>
 <path fill="rgb(255,66,14)" stroke="none" d="M 3243,11541 L 3368,11666 3493,11541 3368,11416 3243,11541 Z"/>
 <path fill="none" stroke="rgb(255,66,14)" stroke-linejoin="round" d="M 3243,11541 L 3368,11666 3493,11541 3368,11416 3243,11541 Z"/>
 <path fill="rgb(255,66,14)" stroke="none" d="M 5477,11363 L 5602,11488 5727,11363 5602,11238 5477,11363 Z"/>
 <path fill="none" stroke="rgb(255,66,14)" stroke-linejoin="round" d="M 5477,11363 L 5602,11488 5727,11363 5602,11238 5477,11363 Z"/>
 <path fill="rgb(255,66,14)" stroke="none" d="M 5129,10951 L 5254,11076 5379,10951 5254,10826 5129,10951 Z"/>
 <path fill="none" stroke="rgb(255,66,14)" stroke-linejoin="round" d="M 5129,10951 L 5254,11076 5379,10951 5254,10826 5129,10951 Z"/>
 <path fill="rgb(255,66,14)" stroke="none" d="M 8562,10694 L 8687,10819 8812,10694 8687,10569 8562,10694 Z"/>
 <path fill="none" stroke="rgb(255,66,14)" stroke-linejoin="round" d="M 8562,10694 L 8687,10819 8812,10694 8687,10569 8562,10694 Z"/>
 <path fill="rgb(255,66,14)" stroke="none" d="M 6616,10491 L 6741,10616 6866,10491 6741,10366 6616,10491 Z"/>
 <path fill="none" stroke="rgb(255,66,14)" stroke-linejoin="round" d="M 6616,10491 L 6741,10616 6866,10491 6741,10366 6616,10491 Z"/>
 <path fill="rgb(255,66,14)" stroke="none" d="M 13783,9928 L 13908,10053 14033,9928 13908,9803 13783,9928 Z"/>
 <path fill="none" stroke="rgb(255,66,14)" stroke-linejoin="round" d="M 13783,9928 L 13908,10053 14033,9928 13908,9803 13783,9928 Z"/>
 <path fill="rgb(255,66,14)" stroke="none" d="M 14938,9642 L 15063,9767 15188,9642 15063,9517 14938,9642 Z"/>
 <path fill="none" stroke="rgb(255,66,14)" stroke-linejoin="round" d="M 14938,9642 L 15063,9767 15188,9642 15063,9517 14938,9642 Z"/>
 <path fill="rgb(255,66,14)" stroke="none" d="M 18740,8856 L 18865,8981 18990,8856 18865,8731 18740,8856 Z"/>
 <path fill="none" stroke="rgb(255,66,14)" stroke-linejoin="round" d="M 18740,8856 L 18865,8981 18990,8856 18865,8731 18740,8856 Z"/>
 <path fill="rgb(87,157,28)" stroke="none" d="M 6714,12264 L 6964,12264 6839,12014 6714,12264 Z"/>
 <path fill="none" stroke="rgb(87,157,28)" stroke-linejoin="round" d="M 6714,12264 L 6964,12264 6839,12014 6714,12264 Z"/>
 <path fill="rgb(87,157,28)" stroke="none" d="M 8562,12165 L 8812,12165 8687,11915 8562,12165 Z"/>
 <path fill="none" stroke="rgb(87,157,28)" stroke-linejoin="round" d="M 8562,12165 L 8812,12165 8687,11915 8562,12165 Z"/>
 <path fill="rgb(87,157,28)" stroke="none" d="M 13929,11843 L 14179,11843 14054,11593 13929,11843 Z"/>
 <path fill="none" stroke="rgb(87,157,28)" stroke-linejoin="round" d="M 13929,11843 L 14179,11843 14054,11593 13929,11843 Z"/>
 <path fill="rgb(87,157,28)" stroke="none" d="M 15460,11891 L 15710,11891 15585,11641 15460,11891 Z"/>
 <path fill="none" stroke="rgb(87,157,28)" stroke-linejoin="round" d="M 15460,11891 L 15710,11891 15585,11641 15460,11891 Z"/>
 <path fill="rgb(87,157,28)" stroke="none" d="M 17652,11832 L 17902,11832 17777,11582 17652,11832 Z"/>
 <path fill="none" stroke="rgb(87,157,28)" stroke-linejoin="round" d="M 17652,11832 L 17902,11832 17777,11582 17652,11832 Z"/>
 <path fill="rgb(87,157,28)" stroke="none" d="M 19750,11602 L 20000,11602 19875,11352 19750,11602 Z"/>
 <path fill="none" stroke="rgb(87,157,28)" stroke-linejoin="round" d="M 19750,11602 L 20000,11602 19875,11352 19750,11602 Z"/>
 <path fill="rgb(87,157,28)" stroke="none" d="M 19514,11544 L 19764,11544 19639,11294 19514,11544 Z"/>
 <path fill="none" stroke="rgb(87,157,28)" stroke-linejoin="round" d="M 19514,11544 L 19764,11544 19639,11294 19514,11544 Z"/>
 <path fill="rgb(255,211,32)" stroke="none" d="M 3243,11911 L 3368,12161 3493,11911 3243,11911 Z"/>
 <path fill="none" stroke="rgb(255,211,32)" stroke-linejoin="round" d="M 3243,11911 L 3368,12161 3493,11911 3243,11911 Z"/>
 <path fill="rgb(255,211,32)" stroke="none" d="M 5477,10751 L 5602,11001 5727,10751 5477,10751 Z"/>
 <path fill="none" stroke="rgb(255,211,32)" stroke-linejoin="round" d="M 5477,10751 L 5602,11001 5727,10751 5477,10751 Z"/>
 <path fill="rgb(255,211,32)" stroke="none" d="M 5129,10918 L 5254,11168 5379,10918 5129,10918 Z"/>
 <path fill="none" stroke="rgb(255,211,32)" stroke-linejoin="round" d="M 5129,10918 L 5254,11168 5379,10918 5129,10918 Z"/>
 <path fill="rgb(255,211,32)" stroke="none" d="M 8562,8860 L 8687,9110 8812,8860 8562,8860 Z"/>
 <path fill="none" stroke="rgb(255,211,32)" stroke-linejoin="round" d="M 8562,8860 L 8687,9110 8812,8860 8562,8860 Z"/>
 <path fill="rgb(255,211,32)" stroke="none" d="M 6616,9830 L 6741,10080 6866,9830 6616,9830 Z"/>
 <path fill="none" stroke="rgb(255,211,32)" stroke-linejoin="round" d="M 6616,9830 L 6741,10080 6866,9830 6616,9830 Z"/>
 <path fill="rgb(255,211,32)" stroke="none" d="M 13783,6189 L 13908,6439 14033,6189 13783,6189 Z"/>
 <path fill="none" stroke="rgb(255,211,32)" stroke-linejoin="round" d="M 13783,6189 L 13908,6439 14033,6189 13783,6189 Z"/>
 <path fill="rgb(255,211,32)" stroke="none" d="M 14938,5593 L 15063,5843 15188,5593 14938,5593 Z"/>
 <path fill="none" stroke="rgb(255,211,32)" stroke-linejoin="round" d="M 14938,5593 L 15063,5843 15188,5593 14938,5593 Z"/>
 <path fill="rgb(255,211,32)" stroke="none" d="M 18740,2663 L 18865,2913 18990,2663 18740,2663 Z"/>
 <path fill="none" stroke="rgb(255,211,32)" stroke-linejoin="round" d="M 18740,2663 L 18865,2913 18990,2663 18740,2663 Z"/>
 <path fill="rgb(0,69,134)" stroke="none" d="M 3243,11188 L 3243,11438 3493,11438 3493,11188 3243,11188 Z"/>
 <path fill="none" stroke="rgb(0,69,134)" stroke-linejoin="round" d="M 3243,11188 L 3243,11438 3493,11438 3493,11188 3243,11188 Z"/>
 <path fill="rgb(0,69,134)" stroke="none" d="M 5477,10934 L 5477,11184 5727,11184 5727,10934 5477,10934 Z"/>
 <path fill="none" stroke="rgb(0,69,134)" stroke-linejoin="round" d="M 5477,10934 L 5477,11184 5727,11184 5727,10934 5477,10934 Z"/>
 <path fill="rgb(0,69,134)" stroke="none" d="M 5129,10371 L 5129,10621 5379,10621 5379,10371 5129,10371 Z"/>
 <path fill="none" stroke="rgb(0,69,134)" stroke-linejoin="round" d="M 5129,10371 L 5129,10621 5379,10621 5379,10371 5129,10371 Z"/>
 <path fill="rgb(0,69,134)" stroke="none" d="M 8562,10123 L 8562,10373 8812,10373 8812,10123 8562,10123 Z"/>
 <path fill="none" stroke="rgb(0,69,134)" stroke-linejoin="round" d="M 8562,10123 L 8562,10373 8812,10373 8812,10123 8562,10123 Z"/>
 <path fill="rgb(0,69,134)" stroke="none" d="M 6616,9745 L 6616,9995 6866,9995 6866,9745 6616,9745 Z"/>
 <path fill="none" stroke="rgb(0,69,134)" stroke-linejoin="round" d="M 6616,9745 L 6616,9995 6866,9995 6866,9745 6616,9745 Z"/>
 <path fill="rgb(0,69,134)" stroke="none" d="M 13783,8970 L 13783,9220 14033,9220 14033,8970 13783,8970 Z"/>
 <path fill="none" stroke="rgb(0,69,134)" stroke-linejoin="round" d="M 13783,8970 L 13783,9220 14033,9220 14033,8970 13783,8970 Z"/>
 <path fill="rgb(0,69,134)" stroke="none" d="M 14938,8598 L 14938,8848 15188,8848 15188,8598 14938,8598 Z"/>
 <path fill="none" stroke="rgb(0,69,134)" stroke-linejoin="round" d="M 14938,8598 L 14938,8848 15188,8848 15188,8598 14938,8598 Z"/>
 <path fill="rgb(0,69,134)" stroke="none" d="M 18740,7542 L 18740,7792 18990,7792 18990,7542 18740,7542 Z"/>
 <path fill="none" stroke="rgb(0,69,134)" stroke-linejoin="round" d="M 18740,7542 L 18740,7792 18990,7792 18990,7542 18740,7542 Z"/>
 <text class="TextShape"><tspan class="TextParagraph" font-family="Liberation Sans, sans-serif" font-size="353px" font-weight="400"><tspan class="TextPosition" x="1790" y="13047"><tspan fill="rgb(0,0,0)" stroke="none">0.00E+00</tspan></tspan></tspan></text>
 <text class="TextShape"><tspan class="TextParagraph" font-family="Liberation Sans, sans-serif" font-size="353px" font-weight="400"><tspan class="TextPosition" x="3767" y="13047"><tspan fill="rgb(0,0,0)" stroke="none">2.00E+07</tspan></tspan></tspan></text>
 <text class="TextShape"><tspan class="TextParagraph" font-family="Liberation Sans, sans-serif" font-size="353px" font-weight="400"><tspan class="TextPosition" x="5744" y="13047"><tspan fill="rgb(0,0,0)" stroke="none">4.00E+07</tspan></tspan></tspan></text>
 <text class="TextShape"><tspan class="TextParagraph" font-family="Liberation Sans, sans-serif" font-size="353px" font-weight="400"><tspan class="TextPosition" x="7721" y="13047"><tspan fill="rgb(0,0,0)" stroke="none">6.00E+07</tspan></tspan></tspan></text>
 <text class="TextShape"><tspan class="TextParagraph" font-family="Liberation Sans, sans-serif" font-size="353px" font-weight="400"><tspan class="TextPosition" x="9699" y="13047"><tspan fill="rgb(0,0,0)" stroke="none">8.00E+07</tspan></tspan></tspan></text>
 <text class="TextShape"><tspan class="TextParagraph" font-family="Liberation Sans, sans-serif" font-size="353px" font-weight="400"><tspan class="TextPosition" x="11676" y="13047"><tspan fill="rgb(0,0,0)" stroke="none">1.00E+08</tspan></tspan></tspan></text>
 <text class="TextShape"><tspan class="TextParagraph" font-family="Liberation Sans, sans-serif" font-size="353px" font-weight="400"><tspan class="TextPosition" x="13653" y="13047"><tspan fill="rgb(0,0,0)" stroke="none">1.20E+08</tspan></tspan></tspan></text>
 <text class="TextShape"><tspan class="TextParagraph" font-family="Liberation Sans, sans-serif" font-size="353px" font-weight="400"><tspan class="TextPosition" x="15631" y="13047"><tspan fill="rgb(0,0,0)" stroke="none">1.40E+08</tspan></tspan></tspan></text>
 <text class="TextShape"><tspan class="TextParagraph" font-family="Liberation Sans, sans-serif" font-size="353px" font-weight="400"><tspan class="TextPosition" x="17608" y="13047"><tspan fill="rgb(0,0,0)" stroke="none">1.60E+08</tspan></tspan></tspan></text>
 <text class="TextShape"><tspan class="TextParagraph" font-family="Liberation Sans, sans-serif" font-size="353px" font-weight="400"><tspan class="TextPosition" x="19585" y="13047"><tspan fill="rgb(0,0,0)" stroke="none">1.80E+08</tspan></tspan></tspan></text>
 <text class="TextShape"><tspan class="TextParagraph" font-family="Liberation Sans, sans-serif" font-size="353px" font-weight="400"><tspan class="TextPosition" x="21563" y="13047"><tspan fill="rgb(0,0,0)" stroke="none">2.00E+08</tspan></tspan></tspan></text>
 <text class="TextShape"><tspan class="TextParagraph" font-family="Liberation Sans, sans-serif" font-size="353px" font-weight="400"><tspan class="TextPosition" x="2096" y="12600"><tspan fill="rgb(0,0,0)" stroke="none">0</tspan></tspan></tspan></text>
 <text class="TextShape"><tspan class="TextParagraph" font-family="Liberation Sans, sans-serif" font-size="353px" font-weight="400"><tspan class="TextPosition" x="1540" y="10801"><tspan fill="rgb(0,0,0)" stroke="none">1000</tspan></tspan></tspan></text>
 <text class="TextShape"><tspan class="TextParagraph" font-family="Liberation Sans, sans-serif" font-size="353px" font-weight="400"><tspan class="TextPosition" x="1540" y="9002"><tspan fill="rgb(0,0,0)" stroke="none">2000</tspan></tspan></tspan></text>
 <text class="TextShape"><tspan class="TextParagraph" font-family="Liberation Sans, sans-serif" font-size="353px" font-weight="400"><tspan class="TextPosition" x="1540" y="7204"><tspan fill="rgb(0,0,0)" stroke="none">3000</tspan></tspan></tspan></text>
 <text class="TextShape"><tspan class="TextParagraph" font-family="Liberation Sans, sans-serif" font-size="353px" font-weight="400"><tspan class="TextPosition" x="1540" y="5405"><tspan fill="rgb(0,0,0)" stroke="none">4000</tspan></tspan></tspan></text>
 <text class="TextShape"><tspan class="TextParagraph" font-family="Liberation Sans, sans-serif" font-size="353px" font-weight="400"><tspan class="TextPosition" x="1540" y="3606"><tspan fill="rgb(0,0,0)" stroke="none">5000</tspan></tspan></tspan></text>
 <text class="TextShape"><tspan class="TextParagraph" font-family="Liberation Sans, sans-serif" font-size="353px" font-weight="400"><tspan class="TextPosition" x="1540" y="1808"><tspan fill="rgb(0,0,0)" stroke="none">6000</tspan></tspan></tspan></text>
 <text class="TextShape"><tspan class="TextParagraph" font-family="Liberation Sans, sans-serif" font-size="706px" font-weight="400"><tspan class="TextPosition" x="9848" y="1269"><tspan fill="rgb(0,0,0)" stroke="none">Size on Disk</tspan></tspan></tspan></text>
 <path fill="none" stroke="rgb(44,0,30)" stroke-linejoin="round" d="M 5193,5660 L 3902,5660 3902,2330 6485,2330 6485,5660 5193,5660 Z"/>
 <path fill="rgb(0,69,134)" stroke="none" d="M 4314,2733 L 4314,2987 4568,2987 4568,2733 4314,2733 Z"/>
 <path fill="none" stroke="rgb(0,69,134)" stroke-linejoin="round" d="M 4314,2733 L 4314,2987 4568,2987 4568,2733 4314,2733 Z"/>
 <path fill="rgb(255,211,32)" stroke="none" d="M 4314,3489 L 4441,3743 4568,3489 4314,3489 Z"/>
 <path fill="none" stroke="rgb(255,211,32)" stroke-linejoin="round" d="M 4314,3489 L 4441,3743 4568,3489 4314,3489 Z"/>
 <path fill="rgb(87,157,28)" stroke="none" d="M 4314,4499 L 4568,4499 4441,4245 4314,4499 Z"/>
 <path fill="none" stroke="rgb(87,157,28)" stroke-linejoin="round" d="M 4314,4499 L 4568,4499 4441,4245 4314,4499 Z"/>
 <path fill="rgb(255,66,14)" stroke="none" d="M 4314,5128 L 4441,5255 4568,5128 4441,5001 4314,5128 Z"/>
 <path fill="none" stroke="rgb(255,66,14)" stroke-linejoin="round" d="M 4314,5128 L 4441,5255 4568,5128 4441,5001 4314,5128 Z"/>
 <text class="TextShape"><tspan class="TextParagraph" font-family="Liberation Sans, sans-serif" font-size="423px" font-weight="400"><tspan class="TextPosition" x="4668" y="3005"><tspan fill="rgb(0,0,0)" stroke="none">mzML</tspan></tspan></tspan></text>
 <text class="TextShape"><tspan class="TextParagraph" font-family="Liberation Sans, sans-serif" font-size="423px" font-weight="400"><tspan class="TextPosition" x="4668" y="3761"><tspan fill="rgb(0,0,0)" stroke="none">MzTree</tspan></tspan></tspan></text>
 <text class="TextShape"><tspan class="TextParagraph" font-family="Liberation Sans, sans-serif" font-size="423px" font-weight="400"><tspan class="TextPosition" x="4668" y="4517"><tspan fill="rgb(0,0,0)" stroke="none">mzDB</tspan></tspan></tspan></text>
 <text class="TextShape"><tspan class="TextParagraph" font-family="Liberation Sans, sans-serif" font-size="423px" font-weight="400"><tspan class="TextPosition" x="4668" y="5273"><tspan fill="rgb(0,0,0)" stroke="none">mz5</tspan></tspan></tspan></text>
 <text class="TextShape"><tspan class="TextParagraph" font-family="Liberation Sans, sans-serif" font-size="564px" font-weight="400"><tspan class="TextPosition" x="10097" y="14088"><tspan fill="rgb(0,0,0)" stroke="none">Number of Points</tspan></tspan></tspan></text>
 <text class="TextShape" transform="translate(790,9584) rotate(-90) translate(-790,-9584)"><tspan class="TextParagraph" font-family="Liberation Sans, sans-serif" font-size="564px" font-weight="400"><tspan class="TextPosition" x="790" y="9584"><tspan fill="rgb(0,0,0)" stroke="none">Size on Disk (MB)</tspan></tspan></tspan></text>
</svg>